<svg width="74" height="19" viewBox="0 0 74 19" fill="none" xmlns="http://www.w3.org/2000/svg">
<path d="M14.3867 4.65234C15.4883 4.65234 16.457 4.88672 17.293 5.35547C18.1367 5.81641 18.793 6.48828 19.2617 7.37109C19.7383 8.25391 19.9766 9.33203 19.9766 10.6055V12.3398H11.5039C11.543 13.3477 11.8438 14.1406 12.4062 14.7188C12.9766 15.2891 13.7656 15.5742 14.7734 15.5742C15.5625 15.5742 16.3203 15.4883 17.0469 15.3164C17.7734 15.1445 18.5 14.8867 19.2266 14.543V17.3086C18.5703 17.6289 17.8867 17.8633 17.1758 18.0117C16.4727 18.1602 15.6055 18.2344 14.5742 18.2344C13.8633 18.2344 13.1914 18.1484 12.5586 17.9766C11.9258 17.7969 11.3477 17.5312 10.8242 17.1797C10.3086 16.8203 9.86328 16.3672 9.48828 15.8203C9.01953 16.375 8.55078 16.832 8.08203 17.1914C7.61328 17.5508 7.07031 17.8164 6.45312 17.9883C5.84375 18.1523 5.08594 18.2344 4.17969 18.2344C3.42969 18.2344 2.73828 18.0859 2.10547 17.7891C1.47266 17.4922 0.964844 17.0391 0.582031 16.4297C0.199219 15.8125 0.0078125 15.0312 0.0078125 14.0859C0.0078125 13.1562 0.21875 12.3945 0.640625 11.8008C1.0625 11.1992 1.69141 10.7461 2.52734 10.4414C3.37109 10.1367 4.41797 9.96094 5.66797 9.91406L7.90625 9.84375V8.85938C7.90625 8.32031 7.73047 7.92188 7.37891 7.66406C7.03516 7.40625 6.5625 7.27734 5.96094 7.27734C5.33594 7.27734 4.73047 7.35938 4.14453 7.52344C3.55859 7.6875 2.97266 7.90625 2.38672 8.17969L1.22656 5.8125C1.91406 5.44531 2.68359 5.15625 3.53516 4.94531C4.38672 4.73438 5.26562 4.62891 6.17188 4.62891C7.05469 4.62891 7.82812 4.75781 8.49219 5.01562C9.16406 5.26562 9.72656 5.64844 10.1797 6.16406C10.6953 5.65625 11.2891 5.27734 11.9609 5.02734C12.6406 4.77734 13.4492 4.65234 14.3867 4.65234ZM7.90625 11.9297L6.58203 11.9766C5.49609 12.0078 4.73828 12.2148 4.30859 12.5977C3.88672 12.9805 3.67578 13.4844 3.67578 14.1094C3.67578 14.6562 3.82422 15.0469 4.12109 15.2812C4.42578 15.5078 4.82422 15.6211 5.31641 15.6211C5.80859 15.6211 6.25 15.5195 6.64062 15.3164C7.03125 15.1133 7.33984 14.8164 7.56641 14.4258C7.79297 14.0352 7.90625 13.5625 7.90625 13.0078V11.9297ZM14.3164 7.19531C13.5195 7.19531 12.8789 7.41797 12.3945 7.86328C11.918 8.30859 11.6445 9.00781 11.5742 9.96094H16.6133C16.6055 9.42969 16.5117 8.95703 16.332 8.54297C16.1602 8.12891 15.9062 7.80078 15.5703 7.55859C15.2344 7.31641 14.8164 7.19531 14.3164 7.19531ZM28.6367 0.867188C30.8477 0.867188 32.4609 1.34375 33.4766 2.29688C34.4922 3.24219 35 4.54688 35 6.21094C35 6.96094 34.8867 7.67969 34.6602 8.36719C34.4336 9.04688 34.0625 9.65234 33.5469 10.1836C33.0391 10.7148 32.3594 11.1367 31.5078 11.4492C30.6562 11.7539 29.6055 11.9062 28.3555 11.9062H26.7969V18H23.1641V0.867188H28.6367ZM28.4492 3.84375H26.7969V8.92969H27.9922C28.6719 8.92969 29.2617 8.83984 29.7617 8.66016C30.2617 8.48047 30.6484 8.19922 30.9219 7.81641C31.1953 7.43359 31.332 6.94141 31.332 6.33984C31.332 5.49609 31.0977 4.87109 30.6289 4.46484C30.1602 4.05078 29.4336 3.84375 28.4492 3.84375ZM43.3203 4.62891C45.0781 4.62891 46.4258 5.01172 47.3633 5.77734C48.3008 6.54297 48.7695 7.70703 48.7695 9.26953V18H46.2734L45.582 16.2188H45.4883C45.1133 16.6875 44.7305 17.0703 44.3398 17.3672C43.9492 17.6641 43.5 17.8828 42.9922 18.0234C42.4844 18.1641 41.8672 18.2344 41.1406 18.2344C40.3672 18.2344 39.6719 18.0859 39.0547 17.7891C38.4453 17.4922 37.9648 17.0391 37.6133 16.4297C37.2617 15.8125 37.0859 15.0312 37.0859 14.0859C37.0859 12.6953 37.5742 11.6719 38.5508 11.0156C39.5273 10.3516 40.9922 9.98438 42.9453 9.91406L45.2188 9.84375V9.26953C45.2188 8.58203 45.0391 8.07812 44.6797 7.75781C44.3203 7.4375 43.8203 7.27734 43.1797 7.27734C42.5469 7.27734 41.9258 7.36719 41.3164 7.54688C40.707 7.72656 40.0977 7.95312 39.4883 8.22656L38.3047 5.8125C39 5.44531 39.7773 5.15625 40.6367 4.94531C41.5039 4.73438 42.3984 4.62891 43.3203 4.62891ZM45.2188 11.9297L43.8359 11.9766C42.6797 12.0078 41.875 12.2148 41.4219 12.5977C40.9766 12.9805 40.7539 13.4844 40.7539 14.1094C40.7539 14.6562 40.9141 15.0469 41.2344 15.2812C41.5547 15.5078 41.9727 15.6211 42.4883 15.6211C43.2539 15.6211 43.8984 15.3945 44.4219 14.9414C44.9531 14.4883 45.2188 13.8438 45.2188 13.0078V11.9297ZM61.6016 14.1094C61.6016 15 61.3906 15.7539 60.9688 16.3711C60.5547 16.9805 59.9336 17.4453 59.1055 17.7656C58.2773 18.0781 57.2461 18.2344 56.0117 18.2344C55.0977 18.2344 54.3125 18.1758 53.6562 18.0586C53.0078 17.9414 52.3516 17.7461 51.6875 17.4727V14.5195C52.3984 14.8398 53.1602 15.1055 53.9727 15.3164C54.793 15.5195 55.5117 15.6211 56.1289 15.6211C56.8242 15.6211 57.3203 15.5195 57.6172 15.3164C57.9219 15.1055 58.0742 14.832 58.0742 14.4961C58.0742 14.2773 58.0117 14.082 57.8867 13.9102C57.7695 13.7305 57.5117 13.5312 57.1133 13.3125C56.7148 13.0859 56.0898 12.793 55.2383 12.4336C54.418 12.0898 53.7422 11.7422 53.2109 11.3906C52.6875 11.0391 52.2969 10.625 52.0391 10.1484C51.7891 9.66406 51.6641 9.05078 51.6641 8.30859C51.6641 7.09766 52.1328 6.1875 53.0703 5.57812C54.0156 4.96094 55.2773 4.65234 56.8555 4.65234C57.668 4.65234 58.4414 4.73438 59.1758 4.89844C59.918 5.0625 60.6797 5.32422 61.4609 5.68359L60.3828 8.26172C59.7344 7.98047 59.1211 7.75 58.543 7.57031C57.9727 7.39062 57.3906 7.30078 56.7969 7.30078C56.2734 7.30078 55.8789 7.37109 55.6133 7.51172C55.3477 7.65234 55.2148 7.86719 55.2148 8.15625C55.2148 8.36719 55.2812 8.55469 55.4141 8.71875C55.5547 8.88281 55.8203 9.06641 56.2109 9.26953C56.6094 9.46484 57.1914 9.71875 57.957 10.0312C58.6992 10.3359 59.3438 10.6562 59.8906 10.9922C60.4375 11.3203 60.8594 11.7305 61.1562 12.2227C61.4531 12.707 61.6016 13.3359 61.6016 14.1094ZM73.5312 14.1094C73.5312 15 73.3203 15.7539 72.8984 16.3711C72.4844 16.9805 71.8633 17.4453 71.0352 17.7656C70.207 18.0781 69.1758 18.2344 67.9414 18.2344C67.0273 18.2344 66.2422 18.1758 65.5859 18.0586C64.9375 17.9414 64.2812 17.7461 63.6172 17.4727V14.5195C64.3281 14.8398 65.0898 15.1055 65.9023 15.3164C66.7227 15.5195 67.4414 15.6211 68.0586 15.6211C68.7539 15.6211 69.25 15.5195 69.5469 15.3164C69.8516 15.1055 70.0039 14.832 70.0039 14.4961C70.0039 14.2773 69.9414 14.082 69.8164 13.9102C69.6992 13.7305 69.4414 13.5312 69.043 13.3125C68.6445 13.0859 68.0195 12.793 67.168 12.4336C66.3477 12.0898 65.6719 11.7422 65.1406 11.3906C64.6172 11.0391 64.2266 10.625 63.9688 10.1484C63.7188 9.66406 63.5938 9.05078 63.5938 8.30859C63.5938 7.09766 64.0625 6.1875 65 5.57812C65.9453 4.96094 67.207 4.65234 68.7852 4.65234C69.5977 4.65234 70.3711 4.73438 71.1055 4.89844C71.8477 5.0625 72.6094 5.32422 73.3906 5.68359L72.3125 8.26172C71.6641 7.98047 71.0508 7.75 70.4727 7.57031C69.9023 7.39062 69.3203 7.30078 68.7266 7.30078C68.2031 7.30078 67.8086 7.37109 67.543 7.51172C67.2773 7.65234 67.1445 7.86719 67.1445 8.15625C67.1445 8.36719 67.2109 8.55469 67.3438 8.71875C67.4844 8.88281 67.75 9.06641 68.1406 9.26953C68.5391 9.46484 69.1211 9.71875 69.8867 10.0312C70.6289 10.3359 71.2734 10.6562 71.8203 10.9922C72.3672 11.3203 72.7891 11.7305 73.0859 12.2227C73.3828 12.707 73.5312 13.3359 73.5312 14.1094Z" fill="white"/>
</svg>
