<svg width="16" height="16" viewBox="0 0 16 16" fill="none" xmlns="http://www.w3.org/2000/svg">
<path d="M15.5483 0.462828C15.1481 0.053861 14.5559 -0.097401 14.0037 0.0626645L1.1264 3.78339C0.543759 3.94505 0.13079 4.40684 0.0195441 4.99268C-0.0941024 5.58973 0.30286 6.34844 0.821472 6.66537L4.84792 9.12397C5.26089 9.37688 5.79391 9.31365 6.13565 8.97111L10.7463 4.36042C10.9784 4.11952 11.3626 4.11952 11.5947 4.36042C11.8268 4.59172 11.8268 4.96867 11.5947 5.20877L6.97599 9.81946C6.63345 10.162 6.56943 10.6934 6.82153 11.1072L9.28174 15.1488C9.56985 15.6282 10.0661 15.9011 10.6103 15.9011C10.6743 15.9011 10.7463 15.9011 10.8104 15.8923C11.4346 15.8131 11.9308 15.3881 12.1149 14.7879L15.9325 2.00746C16.1005 1.46324 15.9485 0.870995 15.5483 0.462828Z" fill="white" fill-opacity="0.15"/>
</svg>
