<svg width="62" height="23" viewBox="0 0 62 23"  fill="none" xmlns="http://www.w3.org/2000/svg">
<path fill-rule="evenodd" clip-rule="evenodd" d="M41.8204 0.19132C41.3042 0.30026 40.7402 0.48087 40.5671 0.592676C39.7811 1.10054 38.8034 2.07555 38.2299 2.9237C37.8517 3.48302 37.5169 3.83277 37.3833 3.80768C37.2347 3.77988 37.0299 3.25095 36.7574 2.19094C36.5345 1.32458 36.3506 0.502658 36.3487 0.364763C36.3456 0.137567 36.1439 0.113915 34.2074 0.113915H32.0695V11.3662V22.6185H34.8709H37.6723L37.6748 16.5624C37.6776 10.1256 37.7522 9.25022 38.4046 8.00702C39.1148 6.65359 40.8701 5.52334 42.5585 5.33241L43.3899 5.23852L43.9448 6.08051C45.3665 8.23766 46.961 10.909 46.961 11.1334C46.961 11.27 46.7521 11.7008 46.4967 12.0907C45.9281 12.959 44.3416 15.4744 42.0266 19.1783C41.0658 20.7157 40.1906 22.0753 40.0817 22.1998C39.9729 22.3243 39.8839 22.4695 39.8839 22.5224C39.8839 22.5753 41.3319 22.6185 43.1018 22.6185H46.3198L48.523 18.8558C49.7348 16.7864 50.8174 15.0931 50.9288 15.0931C51.0401 15.0931 52.1234 16.7864 53.3358 18.8558L55.5402 22.6185H58.7702C60.5465 22.6185 62 22.59 62 22.5553C62 22.5205 61.6088 21.8917 61.1308 21.1578C60.3963 20.0299 58.3187 16.7761 55.4059 12.1915L54.7462 11.1532L55.1534 10.4713C55.6664 9.61259 60.4579 2.02308 61.1799 0.925802L61.7178 0.108469L58.4423 0.147027L55.1667 0.185586L53.1443 3.62578C52.032 5.51789 51.0391 7.06598 50.938 7.06598C50.8368 7.06598 49.8476 5.51789 48.7396 3.62593C46.945 0.561571 46.6775 0.175982 46.29 0.0951375C45.5027 -0.0689887 42.7768 -0.0103617 41.8204 0.19132ZM7.39486 0.334805C5.42475 0.613318 2.38482 1.61814 2.08492 2.08988C2.04364 2.15481 2.30166 2.81719 2.65832 3.56185C3.01483 4.30651 3.31075 4.98036 3.31591 5.0592C3.32092 5.13804 3.43976 5.34574 3.57983 5.52062L3.8346 5.83884L5.09316 5.34588C8.7662 3.90774 11.7315 4.18596 12.4505 6.03607C12.6603 6.5759 12.655 8.66883 12.4434 8.79597C12.3533 8.85016 11.1425 8.95121 9.75258 9.02059C5.31565 9.24191 3.17318 9.88336 1.59336 11.4634C-0.811256 13.8681 -0.425108 19.5272 2.28574 21.6146C3.76162 22.751 5.73762 23.2007 8.01293 22.9177C9.90445 22.6823 10.7673 22.4289 11.8535 21.7893C12.7327 21.2717 14.4092 19.792 14.6901 19.2859C14.9182 18.8749 15.1505 18.9923 15.8873 19.8905C17.7967 22.2185 21.1424 23.3196 25.0903 22.9191C26.0501 22.8218 27.2003 22.6518 27.6463 22.5414C28.7668 22.2641 30.3327 21.6519 30.4736 21.4358C30.5379 21.3374 30.5916 20.3301 30.5929 19.1974L30.5951 17.1382L30.2634 17.2156C30.081 17.2581 29.324 17.5228 28.5812 17.8036C27.2174 18.3192 24.922 18.7499 23.5558 18.7466C20.6656 18.7396 18.4504 16.6918 18.3218 13.9081L18.2838 13.0863L24.9924 13.0147L31.7009 12.943L31.7447 11.2229C31.851 7.05036 31.0102 4.493 28.8428 2.3962C27.4876 1.0852 26.2832 0.533763 24.1409 0.243353C22.9488 0.0818068 22.5764 0.0888307 21.2407 0.297679C19.4523 0.577339 18.3149 1.027 17.1535 1.91328C16.6941 2.2639 16.2739 2.55072 16.2196 2.55072C16.1654 2.55072 15.7452 2.26705 15.2857 1.92031C14.071 1.00364 13.1166 0.590096 11.6345 0.338101C10.1132 0.0793699 9.20602 0.0786533 7.39486 0.334805ZM24.3616 4.6362C24.7764 4.83716 25.2934 5.22806 25.5106 5.50485C26.0312 6.16838 26.471 7.41373 26.5095 8.33298L26.5405 9.07277H22.4859H18.4312L18.4483 8.24741C18.4702 7.20373 19.1636 5.76387 19.9491 5.1313C21.079 4.22137 23.0492 4.00034 24.3616 4.6362ZM12.5789 14.1549C12.5285 15.5983 12.4717 15.9014 12.1351 16.5265C11.3323 18.017 10.1119 18.74 8.39023 18.7452C7.24064 18.7486 6.66134 18.4883 6.05978 17.6981C5.59977 17.0939 5.61923 15.0613 6.09325 14.1898C6.49149 13.4576 7.43496 12.8282 8.51025 12.5773C9.56814 12.3306 12.1927 12.1844 12.4376 12.3586C12.5908 12.4675 12.6233 12.8806 12.5789 14.1549Z" fill="white"/>
</svg>
