<svg width="48" height="48" viewBox="0 0 48 48" fill="none" xmlns="http://www.w3.org/2000/svg">
<ellipse cx="23.6686" cy="17.827" rx="11.2218" ry="20.4672" transform="rotate(120 23.6686 17.827)" fill="#B882E1"/>
<ellipse cx="23.6678" cy="30.9905" rx="11.2218" ry="20.4672" transform="rotate(60 23.6678 30.9905)" fill="white" fill-opacity="0.3"/>
<path fill-rule="evenodd" clip-rule="evenodd" d="M13.461 24.4051C14.8528 25.5224 16.3914 26.5785 18.0562 27.5397C27.8455 33.1915 38.2934 33.4222 41.3922 28.0548C41.471 27.9184 41.5442 27.7798 41.612 27.6389C42.0097 26.5228 42.2314 25.434 42.2605 24.4C42.2302 23.3705 42.0093 22.287 41.614 21.1763C41.5456 21.0338 41.4716 20.8935 41.3919 20.7556C38.2931 15.3882 27.8452 15.6189 18.0559 21.2707C16.3912 22.2319 14.8528 23.2879 13.461 24.4051Z" fill="#DCAFFF"/>
</svg>
