<svg width="32" height="32" viewBox="0 0 32 32" fill="none" xmlns="http://www.w3.org/2000/svg">
<g id="Iconly/Bulk/Send" clip-path="url(#clip0_1339_876)">
<g id="Group">
<ellipse id="Ellipse 753" cx="16.1469" cy="11.4565" rx="7.67417" ry="13.9967" transform="rotate(120 16.1469 11.4565)" fill="white" fill-opacity="0.7"/>
<ellipse id="Ellipse 754" cx="16.1468" cy="20.4604" rx="7.67417" ry="13.9967" transform="rotate(60 16.1468 20.4604)" fill="white" fill-opacity="0.3"/>
<path id="Intersect" fill-rule="evenodd" clip-rule="evenodd" d="M9.16714 15.9576C10.119 16.7217 11.1713 17.444 12.3099 18.1014C19.0044 21.9665 26.1493 22.1242 28.2684 18.4537C28.3223 18.3604 28.3724 18.2655 28.4188 18.1692C28.6904 17.407 28.842 16.6635 28.8623 15.9572C28.8419 15.2513 28.6904 14.5082 28.4189 13.7464C28.3725 13.6499 28.3223 13.5549 28.2684 13.4615C26.1493 9.79102 19.0044 9.94875 12.3099 13.8138C11.1713 14.4712 10.119 15.1935 9.16714 15.9576Z" fill="white"/>
</g>
</g>
<defs>
<clipPath id="clip0_1339_876">
<rect width="32" height="32" fill="white"/>
</clipPath>
</defs>
</svg>
