<svg width="34" height="34" viewBox="0 0 34 34" fill="none" xmlns="http://www.w3.org/2000/svg">
<path d="M16.5624 0.322735C16.6955 -0.107578 17.3045 -0.107578 17.4376 0.322734L21.2016 12.4961C21.2463 12.6406 21.3594 12.7537 21.5039 12.7984L33.6773 16.5624C34.1076 16.6955 34.1076 17.3045 33.6773 17.4376L21.5039 21.2016C21.3594 21.2463 21.2463 21.3594 21.2016 21.5039L17.4376 33.6773C17.3045 34.1076 16.6955 34.1076 16.5624 33.6773L12.7984 21.5039C12.7537 21.3594 12.6406 21.2463 12.4961 21.2016L0.322735 17.4376C-0.107578 17.3045 -0.107578 16.6955 0.322734 16.5624L12.4961 12.7984C12.6406 12.7537 12.7537 12.6406 12.7984 12.4961L16.5624 0.322735Z" fill="#322E65"/>
</svg>
