<svg width="88" height="88" viewBox="0 0 88 88" fill="none" xmlns="http://www.w3.org/2000/svg">
<path opacity="0.3" d="M87 44L78 44" stroke="#191919" stroke-linecap="round" stroke-linejoin="round"/>
<path opacity="0.3" d="M74.4058 73.9058L67.9192 67.4192" stroke="#191919" stroke-linecap="round" stroke-linejoin="round"/>
<path opacity="0.3" d="M44 77V87" stroke="#191919" stroke-linecap="round" stroke-linejoin="round"/>
<path opacity="0.3" d="M20.0806 67.4189L13.594 73.9055" stroke="#191919" stroke-linecap="round" stroke-linejoin="round"/>
<path opacity="0.3" d="M10 44L1 44" stroke="#191919" stroke-linecap="round" stroke-linejoin="round"/>
<path opacity="0.3" d="M20.0806 19.5808L13.594 13.0943" stroke="#191919" stroke-linecap="round" stroke-linejoin="round"/>
<path d="M44 1V10" stroke="white" stroke-linecap="round" stroke-linejoin="round"/>
<path d="M74.4058 13.0945L67.9192 19.581" stroke="white" stroke-linecap="round" stroke-linejoin="round"/>
<path d="M55.1289 1.96509L52.7547 10.8258" stroke="white" stroke-linecap="round" stroke-linejoin="round"/>
<path d="M65.5 6.26074L60.9133 14.2051" stroke="white" stroke-linecap="round" stroke-linejoin="round"/>
<path d="M81.2393 22L73.2949 26.5867" stroke="white" stroke-linecap="round" stroke-linejoin="round"/>
<path opacity="0.3" d="M85.5347 32.3711L76.6739 34.7453" stroke="white" stroke-linecap="round" stroke-linejoin="round"/>
<path opacity="0.3" d="M85.5347 54.6292L76.6739 52.2549" stroke="#191919" stroke-linecap="round" stroke-linejoin="round"/>
<path opacity="0.3" d="M81.2393 65L73.2949 60.4133" stroke="#191919" stroke-linecap="round" stroke-linejoin="round"/>
<path opacity="0.3" d="M65.5 80.7393L60.9133 72.7949" stroke="#191919" stroke-linecap="round" stroke-linejoin="round"/>
<path opacity="0.3" d="M55.1289 85.0349L52.7547 76.1742" stroke="#191919" stroke-linecap="round" stroke-linejoin="round"/>
<path opacity="0.3" d="M35.2451 76.1741L32.8709 85.0348" stroke="#191919" stroke-linecap="round" stroke-linejoin="round"/>
<path opacity="0.3" d="M27.0864 72.7947L22.4998 80.739" stroke="#191919" stroke-linecap="round" stroke-linejoin="round"/>
<path opacity="0.3" d="M14.7051 60.4133L6.76074 65" stroke="#191919" stroke-linecap="round" stroke-linejoin="round"/>
<path opacity="0.3" d="M11.3257 52.2549L2.46492 54.6291" stroke="#191919" stroke-linecap="round" stroke-linejoin="round"/>
<path opacity="0.3" d="M11.3262 34.7451L2.46541 32.3709" stroke="#191919" stroke-linecap="round" stroke-linejoin="round"/>
<path opacity="0.3" d="M14.7056 26.5867L6.76123 22" stroke="#191919" stroke-linecap="round" stroke-linejoin="round"/>
<path opacity="0.3" d="M27.0864 14.2051L22.4998 6.26074" stroke="#191919" stroke-linecap="round" stroke-linejoin="round"/>
<path opacity="0.3" d="M35.2451 10.8259L32.8709 1.96517" stroke="#191919" stroke-linecap="round" stroke-linejoin="round"/>
</svg>
