<svg width="19" height="14" viewBox="0 0 19 14" fill="none" xmlns="http://www.w3.org/2000/svg">
<path d="M14 14C13.7167 14 13.4793 13.904 13.288 13.712C13.096 13.5207 13 13.2833 13 13V10H10C9.71667 10 9.47933 9.904 9.288 9.712C9.096 9.52067 9 9.28333 9 9C9 8.71667 9.096 8.479 9.288 8.287C9.47933 8.09567 9.71667 8 10 8H13V5C13 4.71667 13.096 4.479 13.288 4.287C13.4793 4.09567 13.7167 4 14 4C14.2833 4 14.5207 4.09567 14.712 4.287C14.904 4.479 15 4.71667 15 5V8H18C18.2833 8 18.5207 8.09567 18.712 8.287C18.904 8.479 19 8.71667 19 9C19 9.28333 18.904 9.52067 18.712 9.712C18.5207 9.904 18.2833 10 18 10H15V13C15 13.2833 14.904 13.5207 14.712 13.712C14.5207 13.904 14.2833 14 14 14ZM1 10C0.716667 10 0.479333 9.904 0.288 9.712C0.0960001 9.52067 0 9.28333 0 9C0 8.71667 0.0960001 8.479 0.288 8.287C0.479333 8.09567 0.716667 8 1 8H6C6.28333 8 6.521 8.09567 6.713 8.287C6.90433 8.479 7 8.71667 7 9C7 9.28333 6.90433 9.52067 6.713 9.712C6.521 9.904 6.28333 10 6 10H1ZM1 6C0.716667 6 0.479333 5.904 0.288 5.712C0.0960001 5.52067 0 5.28333 0 5C0 4.71667 0.0960001 4.479 0.288 4.287C0.479333 4.09567 0.716667 4 1 4H10C10.2833 4 10.521 4.09567 10.713 4.287C10.9043 4.479 11 4.71667 11 5C11 5.28333 10.9043 5.52067 10.713 5.712C10.521 5.904 10.2833 6 10 6H1ZM1 2C0.716667 2 0.479333 1.90433 0.288 1.713C0.0960001 1.521 0 1.28333 0 1C0 0.716667 0.0960001 0.479 0.288 0.287C0.479333 0.0956668 0.716667 0 1 0H10C10.2833 0 10.521 0.0956668 10.713 0.287C10.9043 0.479 11 0.716667 11 1C11 1.28333 10.9043 1.521 10.713 1.713C10.521 1.90433 10.2833 2 10 2H1Z" fill="white"/>
</svg>
