<svg width="20" height="20" viewBox="0 0 20 20" fill="none" xmlns="http://www.w3.org/2000/svg">
<path opacity="0.4" d="M19.101 7.58786H17.8979V6.41162C17.8979 5.90945 17.4952 5.5 16.999 5.5C16.5038 5.5 16.1 5.90945 16.1 6.41162V7.58786H14.899C14.4027 7.58786 14 7.99731 14 8.49948C14 9.00165 14.4027 9.4111 14.899 9.4111H16.1V10.5884C16.1 11.0906 16.5038 11.5 16.999 11.5C17.4952 11.5 17.8979 11.0906 17.8979 10.5884V9.4111H19.101C19.5962 9.4111 20 9.00165 20 8.49948C20 7.99731 19.5962 7.58786 19.101 7.58786" fill="white"/>
<path d="M7.5 13.0155C3.45422 13.0155 0 13.6623 0 16.2466C0 18.8299 3.4332 19.5 7.5 19.5C11.5448 19.5 15 18.8532 15 16.2689C15 13.6846 11.5668 13.0155 7.5 13.0155" fill="white"/>
<path opacity="0.4" d="M7.49999 10.5542C10.2546 10.5542 12.4626 8.31769 12.4626 5.52761C12.4626 2.73754 10.2546 0.5 7.49999 0.5C4.74541 0.5 2.53735 2.73754 2.53735 5.52761C2.53735 8.31769 4.74541 10.5542 7.49999 10.5542" fill="white"/>
</svg>
