<svg width="32" height="32" viewBox="0 0 32 32" fill="none" xmlns="http://www.w3.org/2000/svg">
<circle cx="16" cy="16" r="16" fill="white"/>
<g clip-path="url(#clip0_2058_1034)">
<path d="M20.695 9.35622C21.8718 9.35622 22.9068 9.58591 23.7999 10.0453C24.7013 10.497 25.4024 11.1554 25.9031 12.0206C26.4123 12.8857 26.6668 13.9423 26.6668 15.1903V16.89H17.6152C17.6569 17.8776 17.9783 18.6547 18.5792 19.2213C19.1885 19.7802 20.0315 20.0596 21.1081 20.0596C21.9511 20.0596 22.7607 19.9754 23.5369 19.807C24.3132 19.6385 25.0894 19.3859 25.8656 19.049V21.7593C25.1645 22.0732 24.4342 22.3029 23.6747 22.4484C22.9235 22.5939 21.997 22.6666 20.8953 22.6666C20.1358 22.6666 19.418 22.5824 18.7419 22.4139C18.0659 22.2378 17.4483 21.9775 16.8891 21.633C16.3382 21.2808 15.8624 20.8367 15.4618 20.3008C14.961 20.8444 14.4603 21.2923 13.9595 21.6445C13.4587 21.9967 12.8786 22.257 12.2193 22.4254C11.5682 22.5862 10.7586 22.6666 9.79046 22.6666C8.98921 22.6666 8.25055 22.5211 7.5745 22.2302C6.89844 21.9392 6.35593 21.4952 5.94695 20.898C5.53798 20.2932 5.3335 19.5275 5.3335 18.6011C5.3335 17.69 5.55885 16.9435 6.00955 16.3617C6.46026 15.7721 7.13214 15.3281 8.0252 15.0295C8.92661 14.7309 10.045 14.5586 11.3804 14.5127L13.7717 14.4438V13.4791C13.7717 12.9508 13.5839 12.5604 13.2083 12.3077C12.8411 12.055 12.3361 11.9287 11.6934 11.9287C11.0257 11.9287 10.3789 12.0091 9.7529 12.1699C9.12692 12.3307 8.50095 12.545 7.87497 12.813L6.63553 10.4932C7.37001 10.1333 8.19213 9.85005 9.10188 9.64333C10.0116 9.43661 10.9506 9.33325 11.9188 9.33325C12.8619 9.33325 13.6882 9.45958 14.3977 9.71224C15.1154 9.95724 15.7164 10.3324 16.2005 10.8377C16.7513 10.34 17.3857 9.96872 18.1034 9.72372C18.8296 9.47872 19.6934 9.35622 20.695 9.35622ZM13.7717 16.488L12.357 16.5339C11.1968 16.5646 10.3872 16.7675 9.92818 17.1426C9.47747 17.5178 9.25212 18.0116 9.25212 18.6241C9.25212 19.16 9.4107 19.5428 9.72786 19.7725C10.0534 19.9946 10.479 20.1056 11.0049 20.1056C11.5307 20.1056 12.0022 20.006 12.4196 19.807C12.8369 19.6079 13.1666 19.317 13.4086 18.9342C13.6507 18.5514 13.7717 18.0882 13.7717 17.5446V16.488ZM20.6199 11.8483C19.7686 11.8483 19.0841 12.0665 18.5667 12.5029C18.0575 12.9393 17.7654 13.6246 17.6903 14.5586H23.0737C23.0654 14.038 22.9652 13.5748 22.7732 13.169C22.5896 12.7632 22.3184 12.4417 21.9595 12.2043C21.6006 11.967 21.154 11.8483 20.6199 11.8483Z" fill="#6054F0"/>
</g>
<defs>
<clipPath id="clip0_2058_1034">
<rect width="21.3333" height="21.3333" fill="white" transform="translate(5.3335 5.33325)"/>
</clipPath>
</defs>
</svg>
