<svg width="156" height="25" viewBox="0 0 156 25" fill="none" xmlns="http://www.w3.org/2000/svg">
<rect y="6.57892" width="3" height="11.8421" rx="1.5" fill="white"/>
<rect x="106.125" y="6.57886" width="3" height="11.8421" rx="1.5" fill="white"/>
<rect x="6.63281" width="3" height="25" rx="1.5" fill="white"/>
<rect x="112.758" width="3" height="25" rx="1.5" fill="white"/>
<rect x="13.2656" y="5.26318" width="3" height="14.4737" rx="1.5" fill="white"/>
<rect x="119.391" y="5.26318" width="3" height="14.4737" rx="1.5" fill="white"/>
<rect x="19.8984" y="3.94727" width="3" height="17.1053" rx="1.5" fill="white"/>
<rect x="126.023" y="3.94727" width="3" height="17.1053" rx="1.5" fill="white"/>
<rect x="26.5312" y="9.21045" width="3" height="6.57895" rx="1.5" fill="white"/>
<rect x="132.656" y="9.21045" width="3" height="6.57895" rx="1.5" fill="white"/>
<rect x="33.1641" y="10.5264" width="3" height="3.94737" rx="1.5" fill="white"/>
<rect x="139.289" y="10.5264" width="3" height="3.94737" rx="1.5" fill="white"/>
<rect x="39.7969" y="3.94727" width="3" height="17.1053" rx="1.5" fill="white"/>
<rect x="145.922" y="3.94727" width="3" height="17.1053" rx="1.5" fill="white"/>
<rect x="46.4297" width="3" height="25" rx="1.5" fill="white"/>
<rect x="152.555" width="3" height="25" rx="1.5" fill="white"/>
<rect x="53.0625" width="3" height="25" rx="1.5" fill="white"/>
<rect x="59.6953" y="7.89478" width="3" height="9.21053" rx="1.5" fill="white"/>
<rect x="66.3281" y="5.26318" width="3" height="14.4737" rx="1.5" fill="white"/>
<rect x="72.9609" y="3.94727" width="3" height="17.1053" rx="1.5" fill="white"/>
<rect x="79.5938" y="10.5264" width="3" height="3.94737" rx="1.5" fill="white"/>
<rect x="86.2266" width="3" height="25" rx="1.5" fill="white"/>
<rect x="92.8594" y="6.57886" width="3" height="11.8421" rx="1.5" fill="white"/>
<rect x="99.4922" width="3" height="25" rx="1.5" fill="white"/>
</svg>
