<svg width="19" height="32" viewBox="0 0 19 32" fill="none" xmlns="http://www.w3.org/2000/svg">
<path d="M10.9259 1.65649C10.9259 1.65656 10.925 1.65779 10.9231 1.65995C10.925 1.65749 10.9259 1.65641 10.9259 1.65649ZM10.2074 1.46782C10.2075 1.46776 10.2077 1.46915 10.2081 1.47219C10.2076 1.46941 10.2074 1.46789 10.2074 1.46782ZM8.07409 30.3435C8.07404 30.3435 8.07496 30.3423 8.07685 30.3401C8.07506 30.3424 8.07413 30.3435 8.07409 30.3435ZM8.79258 30.5322C8.79255 30.5323 8.79227 30.5309 8.79187 30.5278C8.79241 30.5306 8.79261 30.5321 8.79258 30.5322ZM11.2142 13.2778L11.2143 1.76167C11.2143 1.75381 11.2143 1.74591 11.2143 1.73797C11.2143 1.60655 11.2144 1.46591 11.2015 1.35697C11.1948 1.30023 11.18 1.20436 11.1335 1.10754C11.0797 0.995552 10.9668 0.853062 10.7667 0.800509C10.5665 0.747956 10.3982 0.816603 10.2963 0.887711C10.2082 0.949192 10.1483 1.02544 10.1145 1.07156C10.0498 1.16011 9.98074 1.28264 9.91621 1.39713C9.91232 1.40404 9.90844 1.41093 9.90458 1.41777L0.732736 17.6783C0.73037 17.6825 0.727858 17.6869 0.725223 17.6916C0.695392 17.7443 0.649765 17.8248 0.620757 17.9005C0.587377 17.9876 0.52279 18.2017 0.653112 18.4248C0.783435 18.648 1.00168 18.6969 1.09391 18.7106C1.17405 18.7225 1.26664 18.7223 1.32717 18.7222C1.33252 18.7222 1.33762 18.7222 1.34243 18.7222H7.78575L7.78572 30.2383L7.78572 30.262C7.78567 30.3934 7.78562 30.5341 7.79851 30.643C7.80523 30.6998 7.81999 30.7956 7.86651 30.8925C7.92031 31.0044 8.0332 31.1469 8.23333 31.1995C8.43347 31.252 8.6018 31.1834 8.70368 31.1123C8.79177 31.0508 8.85173 30.9746 8.88545 30.9284C8.95021 30.8399 9.01927 30.7174 9.0838 30.6028L9.09542 30.5822L18.2673 14.3217C18.2696 14.3175 18.2721 14.3131 18.2748 14.3084C18.3046 14.2557 18.3502 14.1752 18.3792 14.0995C18.4126 14.0125 18.4772 13.7983 18.3469 13.5752C18.2166 13.352 17.9983 13.3031 17.9061 13.2894C17.8259 13.2775 17.7334 13.2777 17.6728 13.2778C17.6675 13.2778 17.6624 13.2778 17.6576 13.2778H11.2142Z" fill="white"/>
<path d="M10.9259 1.65649C10.9259 1.65656 10.925 1.65779 10.9231 1.65995C10.925 1.65749 10.9259 1.65641 10.9259 1.65649ZM10.2074 1.46782C10.2075 1.46776 10.2077 1.46915 10.2081 1.47219C10.2076 1.46941 10.2074 1.46789 10.2074 1.46782ZM8.07409 30.3435C8.07404 30.3435 8.07496 30.3423 8.07685 30.3401C8.07506 30.3424 8.07413 30.3435 8.07409 30.3435ZM8.79258 30.5322C8.79255 30.5323 8.79227 30.5309 8.79187 30.5278C8.79241 30.5306 8.79261 30.5321 8.79258 30.5322ZM11.2142 13.2778L11.2143 1.76167C11.2143 1.75381 11.2143 1.74591 11.2143 1.73797C11.2143 1.60655 11.2144 1.46591 11.2015 1.35697C11.1948 1.30023 11.18 1.20436 11.1335 1.10754C11.0797 0.995552 10.9668 0.853062 10.7667 0.800509C10.5665 0.747956 10.3982 0.816603 10.2963 0.887711C10.2082 0.949192 10.1483 1.02544 10.1145 1.07156C10.0498 1.16011 9.98074 1.28264 9.91621 1.39713C9.91232 1.40404 9.90844 1.41093 9.90458 1.41777L0.732736 17.6783C0.73037 17.6825 0.727858 17.6869 0.725223 17.6916C0.695392 17.7443 0.649765 17.8248 0.620757 17.9005C0.587377 17.9876 0.52279 18.2017 0.653112 18.4248C0.783435 18.648 1.00168 18.6969 1.09391 18.7106C1.17405 18.7225 1.26664 18.7223 1.32717 18.7222C1.33252 18.7222 1.33762 18.7222 1.34243 18.7222H7.78575L7.78572 30.2383L7.78572 30.262C7.78567 30.3934 7.78562 30.5341 7.79851 30.643C7.80523 30.6998 7.81999 30.7956 7.86651 30.8925C7.92031 31.0044 8.0332 31.1469 8.23333 31.1995C8.43347 31.252 8.6018 31.1834 8.70368 31.1123C8.79177 31.0508 8.85173 30.9746 8.88545 30.9284C8.95021 30.8399 9.01927 30.7174 9.0838 30.6028L9.09542 30.5822L18.2673 14.3217C18.2696 14.3175 18.2721 14.3131 18.2748 14.3084C18.3046 14.2557 18.3502 14.1752 18.3792 14.0995C18.4126 14.0125 18.4772 13.7983 18.3469 13.5752C18.2166 13.352 17.9983 13.3031 17.9061 13.2894C17.8259 13.2775 17.7334 13.2777 17.6728 13.2778C17.6675 13.2778 17.6624 13.2778 17.6576 13.2778H11.2142Z" fill="#FFE660"/>
<path d="M10.9259 1.65649C10.9259 1.65656 10.925 1.65779 10.9231 1.65995C10.925 1.65749 10.9259 1.65641 10.9259 1.65649ZM10.2074 1.46782C10.2075 1.46776 10.2077 1.46915 10.2081 1.47219C10.2076 1.46941 10.2074 1.46789 10.2074 1.46782ZM8.07409 30.3435C8.07404 30.3435 8.07496 30.3423 8.07685 30.3401C8.07506 30.3424 8.07413 30.3435 8.07409 30.3435ZM8.79258 30.5322C8.79255 30.5323 8.79227 30.5309 8.79187 30.5278C8.79241 30.5306 8.79261 30.5321 8.79258 30.5322ZM11.2142 13.2778L11.2143 1.76167C11.2143 1.75381 11.2143 1.74591 11.2143 1.73797C11.2143 1.60655 11.2144 1.46591 11.2015 1.35697C11.1948 1.30023 11.18 1.20436 11.1335 1.10754C11.0797 0.995552 10.9668 0.853062 10.7667 0.800509C10.5665 0.747956 10.3982 0.816603 10.2963 0.887711C10.2082 0.949192 10.1483 1.02544 10.1145 1.07156C10.0498 1.16011 9.98074 1.28264 9.91621 1.39713C9.91232 1.40404 9.90844 1.41093 9.90458 1.41777L0.732736 17.6783C0.73037 17.6825 0.727858 17.6869 0.725223 17.6916C0.695392 17.7443 0.649765 17.8248 0.620757 17.9005C0.587377 17.9876 0.52279 18.2017 0.653112 18.4248C0.783435 18.648 1.00168 18.6969 1.09391 18.7106C1.17405 18.7225 1.26664 18.7223 1.32717 18.7222C1.33252 18.7222 1.33762 18.7222 1.34243 18.7222H7.78575L7.78572 30.2383L7.78572 30.262C7.78567 30.3934 7.78562 30.5341 7.79851 30.643C7.80523 30.6998 7.81999 30.7956 7.86651 30.8925C7.92031 31.0044 8.0332 31.1469 8.23333 31.1995C8.43347 31.252 8.6018 31.1834 8.70368 31.1123C8.79177 31.0508 8.85173 30.9746 8.88545 30.9284C8.95021 30.8399 9.01927 30.7174 9.0838 30.6028L9.09542 30.5822L18.2673 14.3217C18.2696 14.3175 18.2721 14.3131 18.2748 14.3084C18.3046 14.2557 18.3502 14.1752 18.3792 14.0995C18.4126 14.0125 18.4772 13.7983 18.3469 13.5752C18.2166 13.352 17.9983 13.3031 17.9061 13.2894C17.8259 13.2775 17.7334 13.2777 17.6728 13.2778C17.6675 13.2778 17.6624 13.2778 17.6576 13.2778H11.2142Z" stroke="#FFE660"/>
</svg>
