<svg width="58" height="58" viewBox="0 0 58 58" fill="none" xmlns="http://www.w3.org/2000/svg">
<ellipse cx="29.1332" cy="24.5724" rx="7.67417" ry="13.9967" transform="rotate(120 29.1332 24.5724)" fill="#B882E1"/>
<ellipse cx="29.1332" cy="33.5763" rx="7.67417" ry="13.9967" transform="rotate(60 29.1332 33.5763)" fill="white" fill-opacity="0.3"/>
<path fill-rule="evenodd" clip-rule="evenodd" d="M22.1533 29.0734C23.1052 29.8376 24.1575 30.5599 25.2961 31.2172C31.9906 35.0823 39.1355 35.24 41.2546 31.5695C41.3085 31.4763 41.3586 31.3814 41.405 31.285C41.6766 30.5228 41.8282 29.7794 41.8485 29.0731C41.8281 28.3671 41.6766 27.624 41.4051 26.8622C41.3587 26.7657 41.3086 26.6708 41.2546 26.5774C39.1355 22.9069 31.9906 23.0646 25.2961 26.9297C24.1575 27.587 23.1052 28.3093 22.1533 29.0734Z" fill="#DCAFFF"/>
</svg>
