<svg width="22" height="18" viewBox="0 0 22 18" fill="none" xmlns="http://www.w3.org/2000/svg">
<path d="M11 7.5C16.799 7.5 21.5 5.98896 21.5 4.125C21.5 2.26104 16.799 0.75 11 0.75C5.20101 0.75 0.5 2.26104 0.5 4.125C0.5 5.98896 5.20101 7.5 11 7.5Z" fill="white"/>
<path d="M19.0887 8.5096C16.897 9.16969 14.0244 9.53325 11 9.53325C7.97559 9.53325 5.10298 9.16969 2.91131 8.5096C1.90831 8.20752 1.1188 7.86419 0.5 7.5V8.83748C0.5 9.6822 1.59212 10.4764 3.57539 11.0737C5.55854 11.671 8.19531 12 11 12C13.8047 12 16.4415 11.6711 18.4246 11.0737C20.4078 10.4764 21.5 9.6822 21.5 8.83748V7.5C20.8812 7.86419 20.0917 8.20745 19.0887 8.5096Z" fill="white" fill-opacity="0.4"/>
<path d="M19.0887 13.1456C16.8971 13.8947 14.0244 14.3072 11 14.3072C7.97559 14.3072 5.10294 13.8947 2.91131 13.1456C1.90827 12.8028 1.11876 12.4133 0.5 12V13.6613C0.5 15.6433 5.20101 17.25 11 17.25C16.799 17.25 21.5 15.6433 21.5 13.6613V12C20.8813 12.4132 20.0917 12.8028 19.0887 13.1456Z" fill="white" fill-opacity="0.4"/>
</svg>
