<svg width="48" height="48" viewBox="0 0 48 48" fill="none" xmlns="http://www.w3.org/2000/svg">
<rect width="48" height="48" rx="15" fill="white" fill-opacity="0.05"/>
<path opacity="0.4" d="M24.1152 37.3334C23.9501 37.3334 23.785 37.2955 23.636 37.2184L18.8345 34.7329C17.472 34.0269 16.4062 33.2346 15.574 32.3115C13.7525 30.2928 12.739 27.7014 12.7229 25.0133L12.6666 16.1658C12.6598 15.1446 13.3189 14.2281 14.3042 13.883L23.1205 10.8091C23.644 10.6222 24.2279 10.6196 24.7608 10.8L33.6107 13.7692C34.6013 14.1 35.2711 15.01 35.2765 16.0298L35.3329 24.8839C35.3503 27.5681 34.3718 30.1699 32.5785 32.2108C31.7556 33.147 30.6992 33.951 29.3502 34.6701L24.5917 37.2118C24.444 37.2916 24.2803 37.3321 24.1152 37.3334Z" fill="white"/>
<path fill-rule="evenodd" clip-rule="evenodd" d="M21.345 21.5854H26.6547C28.1339 21.5854 29.3332 22.7693 29.3332 24.2294V27.3561C29.3332 28.8162 28.1339 30 26.6547 30H21.345C19.8658 30 18.6665 28.8162 18.6665 27.3561V24.2294C18.6665 22.7693 19.8658 21.5854 21.345 21.5854ZM23.9964 27.042C24.3088 27.042 24.5575 26.7966 24.5575 26.4882V25.091C24.5575 24.7889 24.3088 24.5435 23.9964 24.5435C23.6904 24.5435 23.4417 24.7889 23.4417 25.091V26.4882C23.4417 26.7966 23.6904 27.042 23.9964 27.042Z" fill="white"/>
<path opacity="0.4" d="M27.4651 20.7507V21.6821C27.242 21.6192 27.0061 21.5877 26.7638 21.5877H26.3494V20.7507C26.3494 19.4731 25.2974 18.4346 24.0031 18.4346C22.7088 18.4346 21.6568 19.4668 21.6504 20.7381V21.5877H21.2424C20.9937 21.5877 20.7578 21.6192 20.5347 21.6884V20.7507C20.541 18.8626 22.0904 17.3333 23.9903 17.3333C25.9158 17.3333 27.4651 18.8626 27.4651 20.7507Z" fill="white"/>
</svg>
