<svg width="118" height="118" viewBox="0 0 118 118" fill="none" xmlns="http://www.w3.org/2000/svg">
<path d="M108.166 72.2866V79.089C108.166 80.2178 108.117 81.3564 108.018 82.4852C106.639 98.0173 95.8499 108.167 80.2821 108.167H37.717C29.8346 108.167 23.1838 105.608 18.405 100.97C16.533 99.2496 14.9565 97.2286 13.7249 94.9119C15.3506 92.9353 17.1734 90.7713 18.947 88.6024C21.9521 85.0041 24.8588 81.4501 26.6816 79.1383C29.3912 75.7864 36.5346 66.963 46.4369 71.1036C48.4568 71.9415 50.2304 73.1246 51.8561 74.1597C55.8466 76.8215 57.5216 77.6102 60.3297 76.0821C63.4334 74.4062 65.4533 71.1036 67.5717 67.6531C68.7048 65.8243 69.8379 64.0547 71.0695 62.4281C76.4394 55.4285 84.716 53.5554 91.6131 57.696C95.0617 59.7663 98.0176 62.3788 100.776 65.0356C101.368 65.6271 101.959 66.1743 102.501 66.7165C103.24 67.4559 105.703 69.9205 108.166 72.2866Z" fill="white"/>
<path opacity="0.4" d="M80.3319 9.83334H37.7175C21.0166 9.83334 9.83337 21.5157 9.83337 38.911V79.0895C9.83337 85.1475 11.2128 90.5253 13.7253 94.9124C15.3511 92.9358 17.1739 90.7718 18.9474 88.598C21.9526 85.0046 24.8593 81.4506 26.6821 79.1387C29.3917 75.7868 36.5351 66.9635 46.4374 71.104C48.4573 71.942 50.2308 73.125 51.8566 74.1602C55.8471 76.822 57.5221 77.6107 60.3302 76.0777C63.4339 74.4067 65.4538 71.1041 67.5722 67.6486C68.7053 65.8248 69.8384 64.0552 71.07 62.4286C76.4399 55.429 84.7165 53.5559 91.6136 57.6965C95.0622 59.7668 98.0181 62.3793 100.777 65.0361C101.368 65.6276 101.959 66.1748 102.501 66.717C103.24 67.4515 105.703 69.9161 108.167 72.2871V38.911C108.167 21.5157 96.9835 9.83334 80.3319 9.83334Z" fill="white"/>
<path d="M56.3175 43.2503C56.3175 50.1759 50.5486 55.9431 43.6268 55.9431C36.71 55.9431 30.941 50.1759 30.941 43.2503C30.941 36.3296 36.71 30.5574 43.6268 30.5574C50.5486 30.5574 56.3175 36.3296 56.3175 43.2503Z" fill="white"/>
</svg>
