<svg width="28" height="24" viewBox="0 0 28 24" fill="none" xmlns="http://www.w3.org/2000/svg">
<path d="M10.4659 15.8103C5.18078 15.8103 0.666748 16.6267 0.666748 19.8898C0.666748 23.1555 5.15208 24 10.4659 24C15.7509 24 20.265 23.1836 20.265 19.9205C20.265 16.6548 15.7796 15.8103 10.4659 15.8103Z" fill="#39F6B2"/>
<path d="M10.466 12.6998C14.0655 12.6998 16.95 9.8749 16.95 6.34988C16.95 2.82487 14.0655 0 10.466 0C6.86779 0 3.98193 2.82487 3.98193 6.34988C3.98193 9.8749 6.86779 12.6998 10.466 12.6998Z" fill="#39F6B2"/>
<path d="M19.5648 6.465C19.5648 8.26009 19.0142 9.93508 18.0488 11.3264C17.9483 11.4695 18.0371 11.6625 18.2119 11.6931C18.4545 11.7327 18.7037 11.757 18.9581 11.7621C21.4891 11.8273 23.7605 10.2315 24.388 7.82825C25.3182 4.26235 22.5889 1.06058 19.1121 1.06058C18.735 1.06058 18.3737 1.09891 18.0214 1.16918C17.9731 1.1794 17.9209 1.2024 17.8949 1.24328C17.8609 1.29566 17.8857 1.36338 17.9196 1.4081C18.9647 2.84289 19.5648 4.58943 19.5648 6.465Z" fill="white" fill-opacity="0.3"/>
<path d="M27.0391 16.2258C26.5759 15.2586 25.4579 14.5955 23.7566 14.2697C22.9543 14.0781 20.7808 13.8059 18.7599 13.8443C18.7299 13.8481 18.7129 13.8685 18.7103 13.8813C18.7064 13.9017 18.7155 13.9324 18.7547 13.9541C19.6888 14.4064 23.2987 16.374 22.8447 20.5238C22.8251 20.7052 22.9725 20.8585 23.1565 20.833C24.045 20.709 26.3307 20.2274 27.0391 18.73C27.4318 17.9378 27.4318 17.0179 27.0391 16.2258Z" fill="white" fill-opacity="0.3"/>
</svg>
