<svg width="24" height="24" viewBox="0 0 24 24" fill="none" xmlns="http://www.w3.org/2000/svg">
<path d="M13.5956 9.83575L14.9535 2.13498C14.9548 2.12759 14.9561 2.12012 14.9574 2.11258C14.9774 1.99978 15 1.8719 15.005 1.76859C15.0077 1.71328 15.0088 1.61835 14.9782 1.51605C14.9425 1.39674 14.8579 1.25312 14.6905 1.16865C14.5232 1.08417 14.3574 1.10138 14.2402 1.14352C14.1397 1.17966 14.064 1.23688 14.0211 1.2719C13.9409 1.33731 13.8515 1.43146 13.7726 1.5145C13.7673 1.52004 13.7621 1.52554 13.7569 1.53097L4.45631 11.3085C4.45274 11.3122 4.44898 11.3162 4.44506 11.3203C4.39977 11.3677 4.33305 11.4377 4.28488 11.5061C4.23211 11.581 4.10715 11.7847 4.19267 12.0446C4.27819 12.3045 4.49972 12.3942 4.58668 12.4231C4.66605 12.4495 4.76125 12.4662 4.82587 12.4775C4.83147 12.4784 4.83684 12.4794 4.84195 12.4803L9.9166 13.3751L8.55872 21.0759C8.55742 21.0832 8.55609 21.0907 8.55476 21.0983C8.53481 21.2111 8.51219 21.3389 8.50715 21.4422C8.50445 21.4976 8.5034 21.5925 8.534 21.6948C8.56969 21.8141 8.6543 21.9577 8.82165 22.0422C8.989 22.1267 9.1548 22.1095 9.27198 22.0673C9.37246 22.0312 9.44822 21.974 9.49112 21.9389C9.57124 21.8735 9.6607 21.7794 9.73961 21.6963C9.74488 21.6908 9.7501 21.6853 9.75527 21.6799L19.0559 11.9024L18.6936 11.5578L19.0559 11.9024C19.0594 11.8986 19.0632 11.8947 19.0671 11.8906C19.1124 11.8431 19.1791 11.7732 19.2273 11.7048C19.2801 11.6298 19.405 11.4261 19.3195 11.1662L18.8446 11.3225L19.3195 11.1662C19.234 10.9064 19.0125 10.8167 18.9255 10.7877C18.8461 10.7613 18.7509 10.7447 18.6863 10.7334C18.6807 10.7324 18.6753 10.7315 18.6702 10.7305L13.5956 9.83575ZM8.85873 21.1643C8.85492 21.1674 8.85517 21.1668 8.85916 21.1639L8.85873 21.1643ZM9.50596 21.491C9.50597 21.4908 9.50598 21.4906 9.50599 21.4905L9.50596 21.491ZM14.6534 2.04655C14.6573 2.04344 14.657 2.04401 14.653 2.0469L14.6534 2.04655Z" fill="white"/>
<path d="M13.5956 9.83575L14.9535 2.13498C14.9548 2.12759 14.9561 2.12012 14.9574 2.11258C14.9774 1.99978 15 1.8719 15.005 1.76859C15.0077 1.71328 15.0088 1.61835 14.9782 1.51605C14.9425 1.39674 14.8579 1.25312 14.6905 1.16865C14.5232 1.08417 14.3574 1.10138 14.2402 1.14352C14.1397 1.17966 14.064 1.23688 14.0211 1.2719C13.9409 1.33731 13.8515 1.43146 13.7726 1.5145C13.7673 1.52004 13.7621 1.52554 13.7569 1.53097L4.45631 11.3085C4.45274 11.3122 4.44898 11.3162 4.44506 11.3203C4.39977 11.3677 4.33305 11.4377 4.28488 11.5061C4.23211 11.581 4.10715 11.7847 4.19267 12.0446C4.27819 12.3045 4.49972 12.3942 4.58668 12.4231C4.66605 12.4495 4.76125 12.4662 4.82587 12.4775C4.83147 12.4784 4.83684 12.4794 4.84195 12.4803L9.9166 13.3751L8.55872 21.0759C8.55742 21.0832 8.55609 21.0907 8.55476 21.0983C8.53481 21.2111 8.51219 21.3389 8.50715 21.4422C8.50445 21.4976 8.5034 21.5925 8.534 21.6948C8.56969 21.8141 8.6543 21.9577 8.82165 22.0422C8.989 22.1267 9.1548 22.1095 9.27198 22.0673C9.37246 22.0312 9.44822 21.974 9.49112 21.9389C9.57124 21.8735 9.6607 21.7794 9.73961 21.6963C9.74488 21.6908 9.7501 21.6853 9.75527 21.6799L19.0559 11.9024L18.6936 11.5578L19.0559 11.9024C19.0594 11.8986 19.0632 11.8947 19.0671 11.8906C19.1124 11.8431 19.1791 11.7732 19.2273 11.7048C19.2801 11.6298 19.405 11.4261 19.3195 11.1662L18.8446 11.3225L19.3195 11.1662C19.234 10.9064 19.0125 10.8167 18.9255 10.7877C18.8461 10.7613 18.7509 10.7447 18.6863 10.7334C18.6807 10.7324 18.6753 10.7315 18.6702 10.7305L13.5956 9.83575ZM8.85873 21.1643C8.85492 21.1674 8.85517 21.1668 8.85916 21.1639L8.85873 21.1643ZM9.50596 21.491C9.50597 21.4908 9.50598 21.4906 9.50599 21.4905L9.50596 21.491ZM14.6534 2.04655C14.6573 2.04344 14.657 2.04401 14.653 2.0469L14.6534 2.04655Z" fill="#FDB64B"/>
<path d="M13.5956 9.83575L14.9535 2.13498C14.9548 2.12759 14.9561 2.12012 14.9574 2.11258C14.9774 1.99978 15 1.8719 15.005 1.76859C15.0077 1.71328 15.0088 1.61835 14.9782 1.51605C14.9425 1.39674 14.8579 1.25312 14.6905 1.16865C14.5232 1.08417 14.3574 1.10138 14.2402 1.14352C14.1397 1.17966 14.064 1.23688 14.0211 1.2719C13.9409 1.33731 13.8515 1.43146 13.7726 1.5145C13.7673 1.52004 13.7621 1.52554 13.7569 1.53097L4.45631 11.3085C4.45274 11.3122 4.44898 11.3162 4.44506 11.3203C4.39977 11.3677 4.33305 11.4377 4.28488 11.5061C4.23211 11.581 4.10715 11.7847 4.19267 12.0446C4.27819 12.3045 4.49972 12.3942 4.58668 12.4231C4.66605 12.4495 4.76125 12.4662 4.82587 12.4775C4.83147 12.4784 4.83684 12.4794 4.84195 12.4803L9.9166 13.3751L8.55872 21.0759C8.55742 21.0832 8.55609 21.0907 8.55476 21.0983C8.53481 21.2111 8.51219 21.3389 8.50715 21.4422C8.50445 21.4976 8.5034 21.5925 8.534 21.6948C8.56969 21.8141 8.6543 21.9577 8.82165 22.0422C8.989 22.1267 9.1548 22.1095 9.27198 22.0673C9.37246 22.0312 9.44822 21.974 9.49112 21.9389C9.57124 21.8735 9.6607 21.7794 9.73961 21.6963C9.74488 21.6908 9.7501 21.6853 9.75527 21.6799L19.0559 11.9024L18.6936 11.5578L19.0559 11.9024C19.0594 11.8986 19.0632 11.8947 19.0671 11.8906C19.1124 11.8431 19.1791 11.7732 19.2273 11.7048C19.2801 11.6298 19.405 11.4261 19.3195 11.1662L18.8446 11.3225L19.3195 11.1662C19.234 10.9064 19.0125 10.8167 18.9255 10.7877C18.8461 10.7613 18.7509 10.7447 18.6863 10.7334C18.6807 10.7324 18.6753 10.7315 18.6702 10.7305L13.5956 9.83575ZM8.85873 21.1643C8.85492 21.1674 8.85517 21.1668 8.85916 21.1639L8.85873 21.1643ZM9.50596 21.491C9.50597 21.4908 9.50598 21.4906 9.50599 21.4905L9.50596 21.491ZM14.6534 2.04655C14.6573 2.04344 14.657 2.04401 14.653 2.0469L14.6534 2.04655Z" stroke="#FDB64B"/>
</svg>
