<svg width="32" height="32" viewBox="0 0 32 32" fill="none" xmlns="http://www.w3.org/2000/svg">
<g clip-path="url(#clip0_1710_844)">
<path d="M14.7842 6.51742C17.1238 4.73793 20.1328 1.96481 21.7159 0.447301C21.9516 0.221327 22.3401 0.279192 22.4833 0.572663C25.9715 7.72055 16.0151 11.5988 13.0779 15.0312C15.1635 14.5615 19.7784 13.5985 21.5531 13.5046C23.7715 13.3871 25.5348 14.3853 25.5348 16.2642C25.5348 18.1431 21.8375 20.5504 18.4247 23.6624C16.3937 25.5142 17.4472 28.2606 18.8458 30.2629C19.1527 30.7022 18.6868 31.3496 18.2085 31.108C10.9765 27.4552 13.631 21.6549 16.0926 19.0238C9.20998 21.1963 6.47963 20.3743 6.02458 16.2642C5.56954 12.1541 11.542 8.98347 14.7842 6.51742Z" fill="#3C32BC"/>
<path d="M18.2076 31.1081C10.9756 27.4553 13.63 21.655 16.0916 19.0239C18.0824 16.896 24.3279 13.6926 21.5521 13.5047C23.7705 13.3872 25.5338 14.3854 25.5338 16.2643C25.5338 18.1432 21.8365 20.5505 18.4237 23.6625C16.3928 25.5143 17.4462 28.2607 18.8449 30.263C19.1517 30.7023 18.6858 31.3497 18.2076 31.1081Z" fill="#6054F0"/>
<path d="M14.7842 6.51742C17.1535 4.71533 20.2094 1.89421 21.7755 0.390089C21.9914 0.182773 22.3415 0.208541 22.5053 0.459011C25.287 4.71153 21.3264 8.92354 16.6045 12.1541C11.7127 15.5009 8.10221 19.262 11.087 20.1529C6.94613 20.5395 6.2196 18.0257 6.02458 16.2642C5.56954 12.1541 11.542 8.98348 14.7842 6.51742Z" fill="#6054F0"/>
</g>
<defs>
<clipPath id="clip0_1710_844">
<rect width="32" height="32" fill="white"/>
</clipPath>
</defs>
</svg>
