<svg width="20" height="17" viewBox="0 0 20 17" fill="none" xmlns="http://www.w3.org/2000/svg">
<path fill-rule="evenodd" clip-rule="evenodd" d="M18.8321 1.54329C19.1521 1.91737 19.3993 2.34768 19.5612 2.81219C19.8798 3.76687 20.0273 4.77012 19.9969 5.7759V11.0289C19.9956 11.4714 19.963 11.9132 19.8991 12.3511C19.7775 13.1238 19.5057 13.8653 19.0989 14.5339C18.9119 14.8569 18.6849 15.155 18.4231 15.4213C17.2383 16.5087 15.665 17.0747 14.0574 16.9919H5.93061C4.32049 17.0741 2.74462 16.5083 1.55601 15.4213C1.2974 15.1545 1.07337 14.8564 0.889149 14.5339C0.484751 13.8658 0.21869 13.1236 0.1067 12.3511C0.0354894 11.914 -0.000192693 11.4718 9.42692e-07 11.0289V5.7759C-0.000172448 5.33718 0.0235732 4.89878 0.0711337 4.46264C0.0811349 4.38612 0.096136 4.31084 0.110982 4.23635C0.135731 4.11216 0.160048 3.99014 0.160048 3.86812C0.250307 3.34179 0.414959 2.83092 0.649079 2.35077C1.34261 0.868913 2.76525 0.114675 5.09481 0.114675H14.8754C16.1802 0.013763 17.4753 0.40656 18.5032 1.21498C18.6215 1.31535 18.7316 1.42515 18.8321 1.54329ZM4.97033 10.5409H15.0355H15.0533C15.2741 10.5505 15.4896 10.4715 15.6517 10.3214C15.8137 10.1714 15.9088 9.9628 15.9157 9.7423C15.9282 9.54849 15.8644 9.35747 15.7379 9.2099C15.5924 9.01159 15.3618 8.89324 15.1155 8.89046H4.97033C4.51365 8.89046 4.14343 9.25992 4.14343 9.71568C4.14343 10.1714 4.51365 10.5409 4.97033 10.5409Z" fill="white"/>
</svg>
