<svg width="88" height="88" viewBox="0 0 88 88" fill="none" xmlns="http://www.w3.org/2000/svg">
<path d="M24.1401 38.75V36.878H27.8841V50H25.8141V38.75H24.1401ZM30.451 47.264V45.716L36.499 37.04H38.983V45.482H40.657V47.264H38.983V50H36.967V47.264H30.451ZM37.057 39.128L32.809 45.482H37.057V39.128ZM43.4553 50.126C43.0833 50.126 42.7713 50 42.5193 49.748C42.2673 49.496 42.1413 49.184 42.1413 48.812C42.1413 48.44 42.2673 48.128 42.5193 47.876C42.7713 47.624 43.0833 47.498 43.4553 47.498C43.8153 47.498 44.1213 47.624 44.3733 47.876C44.6253 48.128 44.7513 48.44 44.7513 48.812C44.7513 49.184 44.6253 49.496 44.3733 49.748C44.1213 50 43.8153 50.126 43.4553 50.126ZM43.4553 42.566C43.0833 42.566 42.7713 42.44 42.5193 42.188C42.2673 41.936 42.1413 41.624 42.1413 41.252C42.1413 40.88 42.2673 40.568 42.5193 40.316C42.7713 40.064 43.0833 39.938 43.4553 39.938C43.8153 39.938 44.1213 40.064 44.3733 40.316C44.6253 40.568 44.7513 40.88 44.7513 41.252C44.7513 41.624 44.6253 41.936 44.3733 42.188C44.1213 42.44 43.8153 42.566 43.4553 42.566ZM46.7335 40.118C46.8055 39.002 47.2315 38.132 48.0115 37.508C48.8035 36.884 49.8115 36.572 51.0355 36.572C51.8755 36.572 52.6015 36.722 53.2135 37.022C53.8255 37.322 54.2875 37.73 54.5995 38.246C54.9115 38.762 55.0675 39.344 55.0675 39.992C55.0675 40.736 54.8695 41.372 54.4735 41.9C54.0775 42.428 53.6035 42.782 53.0515 42.962V43.034C53.7595 43.25 54.3115 43.646 54.7075 44.222C55.1035 44.786 55.3015 45.512 55.3015 46.4C55.3015 47.108 55.1395 47.738 54.8155 48.29C54.4915 48.842 54.0115 49.28 53.3755 49.604C52.7395 49.916 51.9775 50.072 51.0895 50.072C49.7935 50.072 48.7255 49.742 47.8855 49.082C47.0575 48.41 46.6135 47.45 46.5535 46.202H48.5335C48.5815 46.838 48.8275 47.36 49.2715 47.768C49.7155 48.164 50.3155 48.362 51.0715 48.362C51.8035 48.362 52.3675 48.164 52.7635 47.768C53.1595 47.36 53.3575 46.838 53.3575 46.202C53.3575 45.362 53.0875 44.768 52.5475 44.42C52.0195 44.06 51.2035 43.88 50.0995 43.88H49.6315V42.188H50.1175C51.0895 42.176 51.8275 42.014 52.3315 41.702C52.8475 41.39 53.1055 40.898 53.1055 40.226C53.1055 39.65 52.9195 39.194 52.5475 38.858C52.1755 38.51 51.6475 38.336 50.9635 38.336C50.2915 38.336 49.7695 38.51 49.3975 38.858C49.0255 39.194 48.8035 39.614 48.7315 40.118H46.7335ZM57.187 38.75V36.878H60.931V50H58.861V38.75H57.187Z" fill="white"/>
<path opacity="0.3" d="M87 44L78 44" stroke="white" stroke-linecap="round" stroke-linejoin="round"/>
<path opacity="0.3" d="M74.4058 73.9058L67.9192 67.4192" stroke="white" stroke-linecap="round" stroke-linejoin="round"/>
<path opacity="0.3" d="M44 77V87" stroke="white" stroke-linecap="round" stroke-linejoin="round"/>
<path opacity="0.3" d="M20.0806 67.4189L13.594 73.9055" stroke="white" stroke-linecap="round" stroke-linejoin="round"/>
<path opacity="0.3" d="M10 44L1 44" stroke="white" stroke-linecap="round" stroke-linejoin="round"/>
<path opacity="0.3" d="M20.0806 19.5808L13.594 13.0943" stroke="white" stroke-linecap="round" stroke-linejoin="round"/>
<path d="M44 1V10" stroke="white" stroke-opacity="0.3" stroke-linecap="round" stroke-linejoin="round"/>
<path d="M74.4058 13.0945L67.9192 19.581" stroke="white" stroke-opacity="0.3" stroke-linecap="round" stroke-linejoin="round"/>
<path d="M55.1289 1.96509L52.7547 10.8258" stroke="white" stroke-opacity="0.3" stroke-linecap="round" stroke-linejoin="round"/>
<path d="M65.5 6.26074L60.9133 14.2051" stroke="white" stroke-opacity="0.3" stroke-linecap="round" stroke-linejoin="round"/>
<path d="M81.2393 22L73.2949 26.5867" stroke="white" stroke-opacity="0.3" stroke-linecap="round" stroke-linejoin="round"/>
<path opacity="0.3" d="M85.5347 32.3711L76.6739 34.7453" stroke="white" stroke-opacity="0.3" stroke-linecap="round" stroke-linejoin="round"/>
<path opacity="0.3" d="M85.5347 54.6292L76.6739 52.2549" stroke="white" stroke-linecap="round" stroke-linejoin="round"/>
<path opacity="0.3" d="M81.2393 65L73.2949 60.4133" stroke="white" stroke-linecap="round" stroke-linejoin="round"/>
<path opacity="0.3" d="M65.5 80.7393L60.9133 72.7949" stroke="white" stroke-linecap="round" stroke-linejoin="round"/>
<path opacity="0.3" d="M55.1289 85.0349L52.7547 76.1742" stroke="white" stroke-linecap="round" stroke-linejoin="round"/>
<path opacity="0.3" d="M35.2451 76.1741L32.8709 85.0348" stroke="white" stroke-linecap="round" stroke-linejoin="round"/>
<path opacity="0.3" d="M27.0864 72.7947L22.4998 80.739" stroke="white" stroke-linecap="round" stroke-linejoin="round"/>
<path opacity="0.3" d="M14.7051 60.4133L6.76074 65" stroke="white" stroke-linecap="round" stroke-linejoin="round"/>
<path opacity="0.3" d="M11.3257 52.2549L2.46492 54.6291" stroke="white" stroke-linecap="round" stroke-linejoin="round"/>
<path opacity="0.3" d="M11.3262 34.7451L2.46541 32.3709" stroke="white" stroke-linecap="round" stroke-linejoin="round"/>
<path opacity="0.3" d="M14.7056 26.5867L6.76123 22" stroke="white" stroke-linecap="round" stroke-linejoin="round"/>
<path opacity="0.3" d="M27.0864 14.2051L22.4998 6.26074" stroke="white" stroke-linecap="round" stroke-linejoin="round"/>
<path opacity="0.3" d="M35.2451 10.8259L32.8709 1.96517" stroke="white" stroke-linecap="round" stroke-linejoin="round"/>
</svg>
