<svg width="24" height="24" viewBox="0 0 24 24" fill="none" xmlns="http://www.w3.org/2000/svg">
<path d="M13.2816 9.28359L9.28164 13.2836C9.18791 13.3766 9.11352 13.4872 9.06275 13.609C9.01198 13.7309 8.98584 13.8616 8.98584 13.9936C8.98584 14.1256 9.01198 14.2563 9.06275 14.3782C9.11352 14.5 9.18791 14.6106 9.28164 14.7036C9.3746 14.7973 9.4852 14.8717 9.60706 14.9225C9.72892 14.9733 9.85963 14.9994 9.99164 14.9994C10.1237 14.9994 10.2544 14.9733 10.3762 14.9225C10.4981 14.8717 10.6087 14.7973 10.7016 14.7036L14.7016 10.7036C14.8899 10.5153 14.9957 10.2599 14.9957 9.99359C14.9957 9.72729 14.8899 9.4719 14.7016 9.28359C14.5133 9.09529 14.2579 8.9895 13.9916 8.9895C13.7253 8.9895 13.4699 9.09529 13.2816 9.28359Z" fill="white"/>
<path d="M12.2717 17.3937L10.9917 18.6637C10.2732 19.4041 9.30717 19.8541 8.27802 19.9279C7.24887 20.0017 6.22857 19.6941 5.41173 19.0637C4.98 18.7079 4.6277 18.2656 4.37757 17.7652C4.12744 17.2648 3.98506 16.7175 3.95961 16.1587C3.93417 15.5998 4.02623 15.0419 4.22985 14.5208C4.43347 13.9998 4.74412 13.5272 5.14173 13.1337L6.56173 11.7037C6.65546 11.6107 6.72985 11.5001 6.78062 11.3783C6.83139 11.2564 6.85753 11.1257 6.85753 10.9937C6.85753 10.8617 6.83139 10.731 6.78062 10.6091C6.72985 10.4873 6.65546 10.3767 6.56173 10.2837C6.46877 10.19 6.35817 10.1156 6.23631 10.0648C6.11445 10.014 5.98374 9.98789 5.85173 9.98789C5.71972 9.98789 5.58901 10.014 5.46715 10.0648C5.34529 10.1156 5.23469 10.19 5.14173 10.2837L3.87173 11.5637C2.80189 12.5997 2.14432 13.9887 2.0211 15.4729C1.89788 16.957 2.31738 18.4354 3.20173 19.6337C3.72661 20.3146 4.39037 20.8761 5.14892 21.2807C5.90747 21.6854 6.74344 21.9241 7.60131 21.9808C8.45918 22.0375 9.3193 21.9111 10.1245 21.6099C10.9298 21.3087 11.6617 20.8395 12.2717 20.2337L13.6917 18.8137C13.88 18.6254 13.9858 18.37 13.9858 18.1037C13.9858 17.8374 13.88 17.582 13.6917 17.3937C13.5034 17.2054 13.248 17.0996 12.9817 17.0996C12.7154 17.0996 12.46 17.2054 12.2717 17.3937ZM19.6517 3.21369C18.4452 2.32015 16.9547 1.89638 15.4586 2.02151C13.9624 2.14665 12.563 2.81215 11.5217 3.89369L10.4417 4.99369C10.3183 5.08343 10.2151 5.19809 10.1387 5.33024C10.0624 5.4624 10.0147 5.60912 9.99869 5.76088C9.98266 5.91265 9.99868 6.06609 10.0457 6.21128C10.0928 6.35646 10.1698 6.49015 10.2717 6.60369C10.3647 6.69742 10.4753 6.77181 10.5972 6.82258C10.719 6.87335 10.8497 6.89949 10.9817 6.89949C11.1137 6.89949 11.2444 6.87335 11.3663 6.82258C11.4882 6.77181 11.5988 6.69742 11.6917 6.60369L12.9917 5.29369C13.7063 4.55001 14.6712 4.09753 15.6999 4.02365C16.7286 3.94977 17.7482 4.25975 18.5617 4.89369C18.9967 5.24949 19.3518 5.69295 19.6039 6.19515C19.856 6.69736 19.9995 7.24706 20.0249 7.80842C20.0504 8.36978 19.9573 8.93021 19.7517 9.45319C19.5461 9.97616 19.2327 10.45 18.8317 10.8437L17.4117 12.2737C17.318 12.3667 17.2436 12.4773 17.1928 12.5991C17.1421 12.721 17.1159 12.8517 17.1159 12.9837C17.1159 13.1157 17.1421 13.2464 17.1928 13.3683C17.2436 13.4901 17.318 13.6007 17.4117 13.6937C17.5047 13.7874 17.6153 13.8618 17.7372 13.9126C17.859 13.9633 17.9897 13.9895 18.1217 13.9895C18.2537 13.9895 18.3844 13.9633 18.5063 13.9126C18.6282 13.8618 18.7388 13.7874 18.8317 13.6937L20.2517 12.2737C20.8559 11.6638 21.3236 10.9325 21.6238 10.1282C21.924 9.32396 22.0499 8.46509 21.9932 7.60849C21.9365 6.7519 21.6984 5.91713 21.2947 5.15948C20.8911 4.40183 20.331 3.73859 19.6517 3.21369Z" fill="white"/>
</svg>
