<svg width="24" height="24" viewBox="0 0 24 24" fill="none" xmlns="http://www.w3.org/2000/svg">
<path d="M4.125 16.0903L4.125 12.8413L4.14547 12.5444C4.40895 8.72371 6.68445 5.5504 10.4594 4.7951C11.4763 4.59163 12.5237 4.59163 13.5407 4.7951C17.3155 5.5504 19.591 8.72371 19.8545 12.5444L19.875 12.8413V16.0903M19.875 14.0097V17.2425M4.125 14.0097L4.125 17.2425" stroke="#EC52A5" stroke-opacity="0.5" stroke-width="2"/>
<path d="M20.4 17.0804C20.4 18.2717 19.4561 19.2375 18.2918 19.2375C18.0278 19.2375 17.765 19.2002 17.511 19.1266L17.2666 19.0558C16.1144 18.7221 15.2437 17.7533 15.0152 16.5505C14.8731 15.8021 14.8731 15.0328 15.0152 14.2845C15.2437 13.0817 16.1144 12.1128 17.2666 11.7791L17.511 11.7083C17.765 11.6347 18.0278 11.5974 18.2918 11.5974C19.4561 11.5974 20.4 12.5632 20.4 13.7545V17.0804Z" fill="#EC52A5"/>
<path d="M3.59998 17.0804C3.59997 18.2717 4.54382 19.2375 5.70811 19.2375C5.97213 19.2375 6.23489 19.2002 6.48894 19.1266L6.73335 19.0558C7.88559 18.7221 8.75621 17.7533 8.98472 16.5505C9.12689 15.8021 9.12689 15.0328 8.98472 14.2845C8.75621 13.0816 7.88559 12.1128 6.73335 11.7791L6.48894 11.7083C6.2349 11.6347 5.97214 11.5974 5.70811 11.5974C4.54382 11.5974 3.59997 12.5632 3.59998 13.7545L3.59998 17.0804Z" fill="#EC52A5"/>
<path d="M20.4 17.0804C20.4 18.2717 19.4561 19.2375 18.2918 19.2375C18.0278 19.2375 17.765 19.2002 17.511 19.1266L17.2666 19.0558C16.1144 18.7221 15.2437 17.7533 15.0152 16.5505C14.8731 15.8021 14.8731 15.0328 15.0152 14.2845C15.2437 13.0817 16.1144 12.1128 17.2666 11.7791L17.511 11.7083C17.765 11.6347 18.0278 11.5974 18.2918 11.5974C19.4561 11.5974 20.4 12.5632 20.4 13.7545V17.0804Z" stroke="#EC52A5" stroke-width="1.5"/>
<path d="M3.59998 17.0804C3.59997 18.2717 4.54382 19.2375 5.70811 19.2375C5.97213 19.2375 6.23489 19.2002 6.48894 19.1266L6.73335 19.0558C7.88559 18.7221 8.75621 17.7533 8.98472 16.5505C9.12689 15.8021 9.12689 15.0328 8.98472 14.2845C8.75621 13.0816 7.88559 12.1128 6.73335 11.7791L6.48894 11.7083C6.2349 11.6347 5.97214 11.5974 5.70811 11.5974C4.54382 11.5974 3.59997 12.5632 3.59998 13.7545L3.59998 17.0804Z" stroke="#EC52A5" stroke-width="1.5"/>
</svg>
