<svg width="19" height="30" viewBox="0 0 19 30" fill="none" xmlns="http://www.w3.org/2000/svg">
<path d="M8.28769 6.11008C10.7193 4.26055 13.9224 1.26605 15.22 0C19.2729 7.04586 9.51426 10.789 6.688 14.0917C8.64327 13.6514 12.9698 12.7486 14.6335 12.6605C16.7132 12.5504 18.3663 13.4862 18.3663 15.2477C18.3663 17.0092 14.9002 19.266 11.7006 22.1835C9.14098 24.5174 11.8073 28.3669 13.4604 30C4.28834 26.6972 7.00795 20.5137 9.51426 17.8348C3.06185 19.8715 0.502143 19.1009 0.0755378 15.2477C-0.351068 11.3945 5.24813 8.42201 8.28769 6.11008Z" fill="#3C32BC"/>
<path d="M13.4595 30C4.28744 26.6973 7.00705 20.5138 9.51335 17.8349C11.3797 15.84 17.2349 12.8367 14.6326 12.6606C16.7123 12.5505 18.3654 13.4863 18.3654 15.2477C18.3654 17.0092 14.8992 19.2661 11.6997 22.1835C9.14007 24.5174 11.8064 28.367 13.4595 30Z" fill="#6054F0"/>
<path d="M8.28769 6.11009C10.7193 4.26055 13.9224 1.26605 15.22 0C18.4003 4.13179 14.5802 8.25687 9.99419 11.3945C5.40818 14.5321 2.02331 18.0581 4.8216 18.8934C0.939488 19.2558 0.258369 16.8991 0.0755378 15.2477C-0.351068 11.3945 5.24813 8.42201 8.28769 6.11009Z" fill="#6054F0"/>
</svg>
