<svg width="24" height="24" viewBox="0 0 24 24" fill="none" xmlns="http://www.w3.org/2000/svg">
<path d="M11.5 1.44338C11.8094 1.26474 12.1906 1.26474 12.5 1.44338L20.8923 6.28868C21.2017 6.46731 21.3923 6.79743 21.3923 7.1547V16.8453C21.3923 17.2026 21.2017 17.5327 20.8923 17.7113L12.5 22.5566C12.1906 22.7353 11.8094 22.7353 11.5 22.5566L3.1077 17.7113C2.7983 17.5327 2.6077 17.2026 2.6077 16.8453V7.1547C2.6077 6.79743 2.79829 6.46731 3.1077 6.28868L11.5 1.44338Z" stroke="white" stroke-width="2"/>
<path d="M9.98461 14.5C9.98461 14.7761 9.76076 15 9.48461 15H8.90721C8.73332 15 8.57192 14.9097 8.481 14.7614L6.35728 11.2991V14.5C6.35728 14.7761 6.13342 15 5.85728 15H5.5C5.22386 15 5 14.7761 5 14.5V9.5C5 9.22386 5.22386 9 5.5 9H6.07673C6.25098 9 6.41267 9.09072 6.50347 9.23944L8.62734 12.7179V9.5C8.62734 9.22386 8.8512 9 9.12734 9H9.48461C9.76076 9 9.98461 9.22386 9.98461 9.5V14.5Z" fill="white"/>
<path d="M13.9371 9C14.2132 9 14.4371 9.22386 14.4371 9.5V9.67094C14.4371 9.94708 14.2132 10.1709 13.9371 10.1709H12.167V11.4359H13.3656C13.6417 11.4359 13.8656 11.6598 13.8656 11.9359V12.0727C13.8656 12.3488 13.6417 12.5726 13.3656 12.5726H12.167V14.5C12.167 14.7761 11.9431 15 11.667 15H11.3097C11.0336 15 10.8097 14.7761 10.8097 14.5V9.5C10.8097 9.22386 11.0336 9 11.3097 9H13.9371Z" fill="white"/>
<path d="M18.5 9C18.7761 9 19 9.22386 19 9.5V9.67094C19 9.94708 18.7761 10.1709 18.5 10.1709H17.5237V14.5C17.5237 14.7761 17.2998 15 17.0237 15H16.6664C16.3902 15 16.1664 14.7761 16.1664 14.5V10.1709H15.1901C14.9139 10.1709 14.6901 9.94708 14.6901 9.67094V9.5C14.6901 9.22386 14.9139 9 15.1901 9H18.5Z" fill="white"/>
</svg>
