<svg width="17" height="23" viewBox="0 0 17 23" fill="none" xmlns="http://www.w3.org/2000/svg">
<path d="M10.4823 9.33697L11.8402 1.6362C11.8415 1.62881 11.8428 1.62134 11.8441 1.6138C11.8641 1.501 11.8867 1.37312 11.8917 1.26981C11.8944 1.2145 11.8955 1.11957 11.8649 1.01727C11.8292 0.897961 11.7446 0.754343 11.5772 0.669867C11.4099 0.585392 11.2441 0.602605 11.1269 0.644744C11.0264 0.680877 10.9507 0.738097 10.9078 0.773119C10.8277 0.838529 10.7382 0.932678 10.6593 1.01572C10.654 1.02126 10.6488 1.02676 10.6436 1.03219L1.34303 10.8097C1.33946 10.8134 1.3357 10.8174 1.33178 10.8215C1.28649 10.869 1.21977 10.9389 1.1716 11.0073C1.11883 11.0822 0.993864 11.286 1.07938 11.5458C1.1649 11.8057 1.38644 11.8954 1.47339 11.9243C1.55277 11.9508 1.64796 11.9674 1.71259 11.9787C1.71819 11.9797 1.72356 11.9806 1.72867 11.9815L6.80332 12.8763L5.44544 20.5771C5.44413 20.5845 5.44281 20.5919 5.44148 20.5995C5.42153 20.7123 5.39891 20.8402 5.39387 20.9435C5.39117 20.9988 5.39012 21.0937 5.42072 21.196C5.45641 21.3153 5.54102 21.4589 5.70837 21.5434C5.87572 21.6279 6.04152 21.6107 6.1587 21.5685C6.25918 21.5324 6.33493 21.4752 6.37784 21.4402C6.45796 21.3747 6.54742 21.2806 6.62633 21.1976C6.6316 21.192 6.63682 21.1865 6.64199 21.1811L15.9426 11.4036L15.5803 11.059L15.9426 11.4036C15.9462 11.3998 15.9499 11.3959 15.9538 11.3918C15.9991 11.3443 16.0658 11.2744 16.114 11.206C16.1668 11.1311 16.2917 10.9273 16.2062 10.6675L15.7313 10.8238L16.2062 10.6675C16.1207 10.4076 15.8992 10.3179 15.8122 10.2889C15.7328 10.2625 15.6376 10.2459 15.573 10.2346C15.5674 10.2336 15.5621 10.2327 15.5569 10.2318L10.4823 9.33697ZM5.74545 20.6655C5.74164 20.6686 5.74189 20.6681 5.74588 20.6652L5.74545 20.6655ZM6.39268 20.9922C6.39269 20.992 6.3927 20.9919 6.39271 20.9917L6.39268 20.9922ZM11.5402 1.54777C11.544 1.54466 11.5437 1.54523 11.5397 1.54813L11.5402 1.54777Z" fill="white" stroke="white"/>
</svg>
