<svg width="32" height="32" viewBox="0 0 32 32" fill="none" xmlns="http://www.w3.org/2000/svg">
<g opacity="0.3">
<path d="M26.3587 15.5272C25.3847 14.3898 24.9421 13.4042 24.9421 11.7296V11.1603C24.9421 8.97813 24.4399 7.57217 23.348 6.16621C21.665 3.98274 18.8319 2.66675 16.0583 2.66675H15.9404C13.2252 2.66675 10.4808 3.92231 8.76868 6.01715C7.61712 7.45131 7.05658 8.9177 7.05658 11.1603V11.7296C7.05658 13.4042 6.64314 14.3898 5.64 15.5272C4.90189 16.3651 4.66602 17.4421 4.66602 18.6077C4.66602 19.7746 5.04898 20.8798 5.81757 21.7781C6.82071 22.8551 8.23729 23.5426 9.68435 23.6622C11.7794 23.9012 13.8745 23.9912 16 23.9912C18.1242 23.9912 20.2193 23.8408 22.3157 23.6622C23.7614 23.5426 25.178 22.8551 26.1811 21.7781C26.9484 20.8798 27.3327 19.7746 27.3327 18.6077C27.3327 17.4421 27.0968 16.3651 26.3587 15.5272" fill="white"/>
<path opacity="0.4" d="M18.6783 25.638C18.0118 25.4957 13.9502 25.4957 13.2837 25.638C12.7139 25.7696 12.0977 26.0758 12.0977 26.7472C12.1308 27.3877 12.5058 27.9531 13.0253 28.3116L13.0239 28.313C13.6958 28.8367 14.4842 29.1697 15.3098 29.2892C15.7498 29.3496 16.1977 29.347 16.6535 29.2892C17.4778 29.1697 18.2662 28.8367 18.9381 28.313L18.9367 28.3116C19.4562 27.9531 19.8312 27.3877 19.8644 26.7472C19.8644 26.0758 19.2482 25.7696 18.6783 25.638" fill="white"/>
</g>
</svg>
