<svg width="24" height="16" viewBox="0 0 24 16" fill="none" xmlns="http://www.w3.org/2000/svg">
<path d="M23.7866 1.09038C23.6533 0.996628 23.4824 0.973659 23.3291 1.03033L19.253 2.51275C18.7476 2.69636 18.3452 3.06649 18.1201 3.55474C18.078 3.64628 18.0503 3.74139 18.0225 3.83636C17.3226 3.63738 16.0218 3.22178 14.7291 2.55574C13.0612 1.6961 11.6494 1.80592 10.0322 3.02186C9.38203 3.03278 8.4735 3.11097 7.58208 3.18953C7.02155 3.23899 6.49181 3.2845 6.06225 3.31071C6.0517 3.05271 5.99133 2.79667 5.87995 2.5548C5.65486 2.0665 5.25253 1.69638 4.74713 1.51282L0.670922 0.0302993C0.518109 -0.0258569 0.346219 -0.00288791 0.213422 0.0903465C0.0795937 0.184143 0 0.336956 0 0.500034V10.5C0 10.7764 0.223641 11 0.500016 11H1.96045C2.58159 11 3.15947 10.7071 3.53302 10.234C3.732 10.3853 3.96769 10.5625 4.21486 10.7481C4.79836 11.1871 5.43703 11.666 5.7173 11.9009C7.57913 13.4595 9.81741 15.1426 10.2632 15.4356C10.6797 15.709 11.4297 16 12 16C12.2231 16 12.7852 16 13.1797 15.6665C13.5864 15.8262 14.0249 15.8184 14.4326 15.6387C14.8394 15.4595 15.1685 15.1216 15.3599 14.7109C15.7505 14.791 16.1992 14.7324 16.6059 14.5283C16.9873 14.3374 17.268 14.0483 17.4184 13.7104C17.7797 13.7436 18.1655 13.626 18.5107 13.3618C19.0039 12.9848 19.2298 12.428 19.1659 11.8787L20.4342 11.177C20.8056 11.6805 21.396 12 22.0395 12H23.4999C23.7763 12 24 11.7763 24 11.5V1.50007C24 1.33694 23.9204 1.18413 23.7866 1.09038Z" fill="white" fill-opacity="0.4"/>
<path d="M23.3291 1.03017C23.4824 0.973497 23.6533 0.996465 23.7866 1.09022C23.9204 1.18397 24 1.33678 24 1.4999V11.4998C24 11.7762 23.7763 11.9998 23.5 11.9998H22.0395C21.396 11.9998 20.8056 11.6804 20.4342 11.1769L19.1659 11.8785C18.8986 12.1815 18.3466 11.9297 18.1041 11.7659C17.6734 11.0135 16.045 9.67167 14.6085 8.48808L14.6076 8.48732C13.7827 7.80744 12.9974 7.16023 12.4117 6.60965C12.065 6.78154 11.7476 6.90164 11.2774 6.96951C10.7296 7.64971 9.78813 8.00372 9.07769 8.00372C8.74272 8.00372 8.45364 7.92951 8.21927 7.78303C7.80668 7.52522 7.56203 7.15265 7.51075 6.70537C7.399 5.72268 8.24669 4.674 8.81683 4.089C11.5 1.49984 13.0612 1.69593 14.7291 2.55557C16.0218 3.22162 17.3226 3.63722 18.0225 3.8362L18.023 3.83456C18.0506 3.74014 18.0782 3.6456 18.1202 3.55458C18.3453 3.06633 18.7476 2.6962 19.253 2.51259L23.3291 1.03017Z" fill="white"/>
</svg>
