<svg width="48" height="48" viewBox="0 0 48 48" fill="none" xmlns="http://www.w3.org/2000/svg">
<rect width="48" height="48" rx="15" fill="white" fill-opacity="0.05"/>
<path d="M16.5958 37.3333C13.3278 37.3333 10.6665 34.6263 10.6665 31.3005V24.6857C10.6665 21.3668 13.3198 18.6666 16.5825 18.6666H31.4038C34.6732 18.6666 37.3332 21.3736 37.3332 24.7007V31.3128C37.3332 34.6331 34.6798 37.3333 31.4172 37.3333H30.1638H16.5958Z" fill="white" fill-opacity="0.4"/>
<path d="M24.7255 27.9734L28.6041 24.1791C29.0041 23.7869 29.0041 23.1558 28.6015 22.7649C28.1988 22.3754 27.5495 22.3767 27.1495 22.7675L25.0255 24.8465L25.0255 22.8532L25.0255 11.6661C25.0255 11.1143 24.5655 10.6663 23.9988 10.6663C23.4308 10.6663 22.9721 11.1143 22.9721 11.6661L22.9721 24.8465L20.8481 22.7675C20.4481 22.3767 19.7988 22.3754 19.3961 22.7649C19.1948 22.961 19.0935 23.2168 19.0935 23.4739C19.0935 23.7285 19.1948 23.9843 19.3935 24.1791L23.2708 27.9734C23.4641 28.1617 23.7255 28.2682 23.9988 28.2682C24.2708 28.2682 24.5321 28.1617 24.7255 27.9734Z" fill="white"/>
</svg>
