<svg width="40" height="40" viewBox="0 0 40 40" fill="none" xmlns="http://www.w3.org/2000/svg">
<circle cx="19.9999" cy="20" r="20" fill="white" fill-opacity="0.05"/>
<path d="M25.5539 15.2959C28.0049 15.2959 29.9999 17.3557 29.9999 19.8873V24.9196C29.9999 27.4451 28.0099 29.4997 25.5639 29.4997L14.4479 29.4997C11.9959 29.4997 9.99988 27.4409 9.99988 24.9093V19.877C9.99988 17.3516 11.9909 15.2959 14.4379 15.2959H15.3779L25.5539 15.2959Z" fill="white" fill-opacity="0.2"/>
<path d="M20.5458 24.0374L23.4548 21.0695C23.7548 20.7627 23.7548 20.2691 23.4528 19.9634C23.1508 19.6587 22.6638 19.6597 22.3638 19.9654L20.7708 21.5905L20.7708 11.2821C20.7708 10.8504 20.4258 10.5 19.9998 10.5C19.5748 10.5 19.2308 10.8504 19.2308 11.2821V21.5905L17.6368 19.9654C17.3368 19.6597 16.8498 19.6587 16.5478 19.9634C16.3968 20.1168 16.3208 20.3168 16.3208 20.518C16.3208 20.717 16.3968 20.9171 16.5458 21.0695L19.4548 24.0374C19.5998 24.1847 19.7958 24.268 19.9998 24.268C20.2048 24.268 20.4008 24.1847 20.5458 24.0374Z" fill="white"/>
</svg>
