<svg width="48" height="48" viewBox="0 0 48 48" fill="none" xmlns="http://www.w3.org/2000/svg">
<rect width="48" height="48" rx="15" fill="white" fill-opacity="0.05"/>
<path d="M16.5958 37.3333C13.3278 37.3333 10.6665 34.6263 10.6665 31.3005V24.6857C10.6665 21.3668 13.3198 18.6666 16.5825 18.6666H31.4038C34.6732 18.6666 37.3332 21.3736 37.3332 24.7007V31.3128C37.3332 34.6331 34.6798 37.3333 31.4172 37.3333H30.1638H16.5958Z" fill="white" fill-opacity="0.4"/>
<path d="M23.2721 10.9611L19.3934 14.7555C18.9934 15.1477 18.9934 15.7788 19.3961 16.1696C19.7988 16.5592 20.4481 16.5579 20.8481 16.167L22.9721 14.0881V16.0813V27.2684C22.9721 27.8203 23.4321 28.2683 23.9988 28.2683C24.5668 28.2683 25.0254 27.8203 25.0254 27.2684V14.0881L27.1494 16.167C27.5494 16.5579 28.1988 16.5592 28.6014 16.1696C28.8028 15.9736 28.9041 15.7177 28.9041 15.4606C28.9041 15.2061 28.8028 14.9503 28.6041 14.7555L24.7268 10.9611C24.5334 10.7728 24.2721 10.6664 23.9988 10.6664C23.7268 10.6664 23.4654 10.7728 23.2721 10.9611Z" fill="white"/>
</svg>
