<svg width="48" height="48" viewBox="0 0 48 48" fill="none" xmlns="http://www.w3.org/2000/svg">
<circle cx="24" cy="24" r="24" fill="white"/>
<g clip-path="url(#clip0_1232_2047)">
<path d="M26.1405 21.3308L27.9234 11.2195C27.9247 11.2118 27.9261 11.2041 27.9275 11.1964C27.9495 11.0718 27.9734 10.9365 27.9793 10.8288C27.9823 10.7723 27.9842 10.6758 27.9546 10.5726C27.9204 10.4528 27.8342 10.2978 27.6522 10.2119C27.4702 10.126 27.2958 10.158 27.1815 10.2077C27.0831 10.2505 27.0098 10.3132 26.9681 10.3515C26.8887 10.4245 26.7994 10.529 26.7172 10.6252C26.7121 10.6311 26.707 10.6371 26.702 10.643L26.9685 10.8709L26.702 10.643L15.7103 23.4969C15.7071 23.5006 15.7037 23.5045 15.7002 23.5087C15.6599 23.5556 15.5989 23.6266 15.5555 23.6959C15.5061 23.7746 15.3992 23.9755 15.4877 24.2224C15.5763 24.4694 15.7866 24.5565 15.8748 24.5859C15.9523 24.6117 16.0445 24.6278 16.1054 24.6385C16.1108 24.6394 16.1159 24.6403 16.1207 24.6412L22.0365 25.6843L20.2536 35.7956L20.2495 35.8186C20.2275 35.9432 20.2036 36.0786 20.1977 36.1862C20.1946 36.2428 20.1928 36.3392 20.2223 36.4424C20.2566 36.5622 20.3427 36.7172 20.5247 36.8031C20.7067 36.889 20.8812 36.857 20.9954 36.8073C21.0939 36.7645 21.1672 36.7018 21.2088 36.6635C21.2882 36.5905 21.3775 36.486 21.4597 36.3899L21.4749 36.372L32.4667 23.5182C32.4699 23.5144 32.4732 23.5105 32.4768 23.5064C32.517 23.4594 32.578 23.3884 32.6214 23.3192C32.6708 23.2404 32.7778 23.0395 32.6892 22.7926C32.6006 22.5456 32.3903 22.4585 32.3022 22.4291C32.2247 22.4033 32.1324 22.3872 32.0715 22.3766C32.0662 22.3756 32.061 22.3747 32.0562 22.3739L26.1405 21.3308ZM20.5279 35.931C20.5279 35.9309 20.529 35.9299 20.5311 35.9282C20.5289 35.9302 20.5278 35.931 20.5279 35.931ZM27.6491 11.0841C27.6491 11.0841 27.6479 11.0852 27.6457 11.0869C27.648 11.0849 27.6491 11.084 27.6491 11.0841ZM26.9808 10.7731C26.9808 10.7703 26.9808 10.7687 26.9809 10.7687C26.9809 10.7686 26.981 10.77 26.9808 10.7731Z" fill="white"/>
<path d="M26.1405 21.3308L27.9234 11.2195C27.9247 11.2118 27.9261 11.2041 27.9275 11.1964C27.9495 11.0718 27.9734 10.9365 27.9793 10.8288C27.9823 10.7723 27.9842 10.6758 27.9546 10.5726C27.9204 10.4528 27.8342 10.2978 27.6522 10.2119C27.4702 10.126 27.2958 10.158 27.1815 10.2077C27.0831 10.2505 27.0098 10.3132 26.9681 10.3515C26.8887 10.4245 26.7994 10.529 26.7172 10.6252C26.7121 10.6311 26.707 10.6371 26.702 10.643L26.9685 10.8709L26.702 10.643L15.7103 23.4969C15.7071 23.5006 15.7037 23.5045 15.7002 23.5087C15.6599 23.5556 15.5989 23.6266 15.5555 23.6959C15.5061 23.7746 15.3992 23.9755 15.4877 24.2224C15.5763 24.4694 15.7866 24.5565 15.8748 24.5859C15.9523 24.6117 16.0445 24.6278 16.1054 24.6385C16.1108 24.6394 16.1159 24.6403 16.1207 24.6412L22.0365 25.6843L20.2536 35.7956L20.2495 35.8186C20.2275 35.9432 20.2036 36.0786 20.1977 36.1862C20.1946 36.2428 20.1928 36.3392 20.2223 36.4424C20.2566 36.5622 20.3427 36.7172 20.5247 36.8031C20.7067 36.889 20.8812 36.857 20.9954 36.8073C21.0939 36.7645 21.1672 36.7018 21.2088 36.6635C21.2882 36.5905 21.3775 36.486 21.4597 36.3899L21.4749 36.372L32.4667 23.5182C32.4699 23.5144 32.4732 23.5105 32.4768 23.5064C32.517 23.4594 32.578 23.3884 32.6214 23.3192C32.6708 23.2404 32.7778 23.0395 32.6892 22.7926C32.6006 22.5456 32.3903 22.4585 32.3022 22.4291C32.2247 22.4033 32.1324 22.3872 32.0715 22.3766C32.0662 22.3756 32.061 22.3747 32.0562 22.3739L26.1405 21.3308ZM20.5279 35.931C20.5279 35.9309 20.529 35.9299 20.5311 35.9282C20.5289 35.9302 20.5278 35.931 20.5279 35.931ZM27.6491 11.0841C27.6491 11.0841 27.6479 11.0852 27.6457 11.0869C27.648 11.0849 27.6491 11.084 27.6491 11.0841ZM26.9808 10.7731C26.9808 10.7703 26.9808 10.7687 26.9809 10.7687C26.9809 10.7686 26.981 10.77 26.9808 10.7731Z" fill="#FDB64B"/>
<path d="M26.1405 21.3308L27.9234 11.2195C27.9247 11.2118 27.9261 11.2041 27.9275 11.1964C27.9495 11.0718 27.9734 10.9365 27.9793 10.8288C27.9823 10.7723 27.9842 10.6758 27.9546 10.5726C27.9204 10.4528 27.8342 10.2978 27.6522 10.2119C27.4702 10.126 27.2958 10.158 27.1815 10.2077C27.0831 10.2505 27.0098 10.3132 26.9681 10.3515C26.8887 10.4245 26.7994 10.529 26.7172 10.6252C26.7121 10.6311 26.707 10.6371 26.702 10.643L26.9685 10.8709L26.702 10.643L15.7103 23.4969C15.7071 23.5006 15.7037 23.5045 15.7002 23.5087C15.6599 23.5556 15.5989 23.6266 15.5555 23.6959C15.5061 23.7746 15.3992 23.9755 15.4877 24.2224C15.5763 24.4694 15.7866 24.5565 15.8748 24.5859C15.9523 24.6117 16.0445 24.6278 16.1054 24.6385C16.1108 24.6394 16.1159 24.6403 16.1207 24.6412L22.0365 25.6843L20.2536 35.7956L20.2495 35.8186C20.2275 35.9432 20.2036 36.0786 20.1977 36.1862C20.1946 36.2428 20.1928 36.3392 20.2223 36.4424C20.2566 36.5622 20.3427 36.7172 20.5247 36.8031C20.7067 36.889 20.8812 36.857 20.9954 36.8073C21.0939 36.7645 21.1672 36.7018 21.2088 36.6635C21.2882 36.5905 21.3775 36.486 21.4597 36.3899L21.4749 36.372L32.4667 23.5182C32.4699 23.5144 32.4732 23.5105 32.4768 23.5064C32.517 23.4594 32.578 23.3884 32.6214 23.3192C32.6708 23.2404 32.7778 23.0395 32.6892 22.7926C32.6006 22.5456 32.3903 22.4585 32.3022 22.4291C32.2247 22.4033 32.1324 22.3872 32.0715 22.3766C32.0662 22.3756 32.061 22.3747 32.0562 22.3739L26.1405 21.3308ZM20.5279 35.931C20.5279 35.9309 20.529 35.9299 20.5311 35.9282C20.5289 35.9302 20.5278 35.931 20.5279 35.931ZM27.6491 11.0841C27.6491 11.0841 27.6479 11.0852 27.6457 11.0869C27.648 11.0849 27.6491 11.084 27.6491 11.0841ZM26.9808 10.7731C26.9808 10.7703 26.9808 10.7687 26.9809 10.7687C26.9809 10.7686 26.981 10.77 26.9808 10.7731Z" stroke="#FDB64B"/>
</g>
<defs>
<clipPath id="clip0_1232_2047">
<rect width="32" height="32" fill="white" transform="translate(11.0231 5.4646) rotate(10)"/>
</clipPath>
</defs>
</svg>
