<svg width="32" height="32" viewBox="0 0 32 32" fill="none" xmlns="http://www.w3.org/2000/svg">
<path d="M15.6823 20.1066C13.543 20.1066 11.8125 18.4399 11.8125 16.3466C11.8125 14.2532 13.543 12.5732 15.6823 12.5732C17.8216 12.5732 19.5112 14.2532 19.5112 16.3466C19.5112 18.4399 17.8216 20.1066 15.6823 20.1066Z" fill="white"/>
<path opacity="0.4" d="M27.9735 19.4933C27.7146 19.0933 27.3467 18.6933 26.8698 18.44C26.4883 18.2533 26.243 17.9467 26.025 17.5867C25.33 16.44 25.7388 14.9333 26.897 14.2533C28.2597 13.4933 28.6957 11.8 27.9054 10.48L26.9924 8.90667C26.2157 7.58667 24.5125 7.12 23.1635 7.89333C21.9644 8.53333 20.4247 8.10667 19.7297 6.97333C19.5117 6.6 19.3891 6.2 19.4163 5.8C19.4572 5.28 19.2937 4.78667 19.0484 4.38667C18.5442 3.56 17.6313 3 16.623 3L14.7017 3C13.707 3.02667 12.794 3.56 12.2899 4.38667C12.031 4.78667 11.8811 5.28 11.9083 5.8C11.9356 6.2 11.813 6.6 11.5949 6.97333C10.9 8.10667 9.36026 8.53333 8.17479 7.89333C6.81218 7.12 5.12254 7.58667 4.33223 8.90667L3.41928 10.48C2.64259 11.8 3.07863 13.4933 4.42761 14.2533C5.58583 14.9333 5.99461 16.44 5.31331 17.5867C5.08166 17.9467 4.83639 18.2533 4.45486 18.44C3.99157 18.6933 3.58279 19.0933 3.36477 19.4933C2.86061 20.32 2.88786 21.36 3.39203 22.2267L4.33223 23.8267C4.83639 24.68 5.77659 25.2133 6.75767 25.2133C7.22096 25.2133 7.766 25.08 8.20204 24.8133C8.54269 24.5867 8.95147 24.5067 9.40114 24.5067C10.7501 24.5067 11.8811 25.6133 11.9083 26.9333C11.9083 28.4667 13.1619 29.6667 14.7426 29.6667H16.5957C18.1627 29.6667 19.4163 28.4667 19.4163 26.9333C19.4572 25.6133 20.5882 24.5067 21.9371 24.5067C22.3732 24.5067 22.782 24.5867 23.1362 24.8133C23.5723 25.08 24.1037 25.2133 24.5806 25.2133C25.5481 25.2133 26.4883 24.68 26.9924 23.8267L27.9463 22.2267C28.4368 21.3333 28.4777 20.32 27.9735 19.4933Z" fill="white"/>
</svg>
