<svg width="29" height="31" viewBox="0 0 29 31" fill="none" xmlns="http://www.w3.org/2000/svg">
<ellipse rx="6.45605" ry="12.0816" transform="matrix(-0.519405 0.854528 -0.876807 -0.480843 14.5027 11.3262)" fill="#B882E1"/>
<ellipse rx="6.45605" ry="12.0816" transform="matrix(0.519405 0.854528 -0.876807 0.480843 14.5021 18.7988)" fill="white" fill-opacity="0.3"/>
<path fill-rule="evenodd" clip-rule="evenodd" d="M8.4023 15.0604C9.23415 15.6946 10.1537 16.2942 11.1487 16.8398C16.9991 20.0482 23.2432 20.1792 25.0952 17.1323C25.142 17.0552 25.1856 16.9768 25.226 16.8971C25.4642 16.2624 25.5969 15.6434 25.614 15.0554C25.5957 14.4719 25.4638 13.8579 25.2281 13.2285C25.187 13.1472 25.1426 13.0673 25.0949 12.9887C23.2429 9.94178 16.9988 10.0727 11.1484 13.2811C10.1535 13.8267 9.23407 14.4262 8.4023 15.0604Z" fill="#DCAFFF"/>
</svg>
