<svg width="32" height="32" viewBox="0 0 32 32" fill="none" xmlns="http://www.w3.org/2000/svg">
<g clip-path="url(#clip0_1330_6785)">
<path opacity="0.4" d="M14.5166 6.51742C17.1104 4.54458 20.527 1.35046 21.9111 0C26.2341 7.51559 15.825 11.5082 12.8103 15.0312C14.8959 14.5615 19.5108 13.5985 21.2855 13.5046C23.5039 13.3871 25.2672 14.3853 25.2672 16.2642C25.2672 18.1431 21.5699 20.5504 18.1571 23.6624C15.4268 26.1519 18.2708 30.2581 20.0341 32C10.2507 28.477 13.1516 21.8813 15.825 19.0238C8.94241 21.1963 6.21205 20.3743 5.75701 16.2642C5.30196 12.1541 11.2744 8.98348 14.5166 6.51742Z" fill="white"/>
<path d="M20.0332 32.0001C10.2497 28.4771 13.1506 21.8814 15.824 19.0239C17.8148 16.896 24.0604 13.6926 21.2846 13.5047C23.5029 13.3872 25.2662 14.3854 25.2662 16.2643C25.2662 18.1432 21.569 20.5505 18.1561 23.6625C15.4258 26.152 18.2699 30.2582 20.0332 32.0001Z" fill="white"/>
<path d="M14.5166 6.51742C17.1104 4.54458 20.527 1.35046 21.9111 0C25.3034 4.40724 21.2286 8.80733 16.3369 12.1541C11.4452 15.5009 7.83463 19.262 10.8195 20.1529C6.67855 20.5395 5.95203 18.0257 5.75701 16.2642C5.30196 12.1541 11.2744 8.98348 14.5166 6.51742Z" fill="white"/>
</g>
<defs>
<clipPath id="clip0_1330_6785">
<rect width="32" height="32" fill="white"/>
</clipPath>
</defs>
</svg>
