<svg width="32" height="37" viewBox="0 0 32 37" fill="none" xmlns="http://www.w3.org/2000/svg">
<ellipse cx="16.1662" cy="13.5377" rx="7.61418" ry="13.8873" transform="rotate(120 16.1662 13.5377)" fill="white" fill-opacity="0.7"/>
<ellipse cx="16.1656" cy="22.4694" rx="7.61418" ry="13.8873" transform="rotate(60 16.1656 22.4694)" fill="white" fill-opacity="0.3"/>
<path fill-rule="evenodd" clip-rule="evenodd" d="M9.24012 18.001C10.1845 18.7591 11.2285 19.4756 12.3581 20.1278C19.0003 23.9627 26.0893 24.1192 28.1919 20.4774C28.2453 20.3849 28.295 20.2909 28.3409 20.1954C28.6109 19.4379 28.7613 18.699 28.781 17.9971C28.7605 17.2988 28.6106 16.5638 28.3424 15.8103C28.296 15.7135 28.2457 15.6183 28.1917 15.5247C26.0891 11.8829 19 12.0394 12.3579 15.8743C11.2283 16.5264 10.1845 17.2429 9.24012 18.001Z" fill="white"/>
</svg>
