<svg width="32" height="23" viewBox="0 0 32 23" fill="none" xmlns="http://www.w3.org/2000/svg">
<path d="M17.5014 21.202L17.5034 21.2031C19.0326 22.0737 20.8106 22.5 22.8205 22.5C24.4435 22.5 25.9236 22.2349 27.2535 21.6953L27.2551 21.6947C28.5885 21.1482 29.7034 20.3828 30.5881 19.3939L30.5897 19.3921C31.4773 18.3905 32.0656 17.2174 32.3536 15.8822L32.4758 15.3153L31.8971 15.2778L26.5841 14.9336L26.218 14.9099L26.0855 15.252C25.9138 15.6953 25.6639 16.0621 25.3363 16.3605L25.3362 16.3605L25.332 16.3645C25.0103 16.6646 24.6192 16.8943 24.15 17.0501L24.1476 17.0509C23.6845 17.2073 23.1539 17.2894 22.5501 17.2894C21.6651 17.2894 20.9238 17.1059 20.3085 16.7583C19.6911 16.4094 19.2128 15.9154 18.8687 15.2649C18.5873 14.7329 18.4147 14.1068 18.3624 13.377H32H32.5V12.877V11.3279C32.5 9.55124 32.2411 7.97812 31.7093 6.61919C31.191 5.26309 30.4641 4.12252 29.5225 3.20973C28.587 2.30283 27.4893 1.6256 26.2349 1.17853C24.9947 0.724476 23.6568 0.5 22.2256 0.5C20.4704 0.5 18.9074 0.863527 17.552 1.60703C16.936 1.94091 16.3688 2.3591 15.8496 2.85898C15.726 2.70393 15.5937 2.55716 15.4527 2.41885C14.9679 1.93478 14.4085 1.55206 13.7775 1.27183C13.1719 0.998953 12.5339 0.801927 11.8647 0.680202C11.2044 0.56009 10.539 0.5 9.86903 0.5C8.1191 0.5 6.56852 0.75369 5.22784 1.27495C3.8911 1.78586 2.78817 2.52683 1.935 3.50486L1.93473 3.50517C1.09218 4.47265 0.528817 5.61818 0.241592 6.93096L0.119102 7.49081L0.69039 7.53626L6.01696 7.95996L6.42774 7.99264L6.53829 7.59567C6.6942 7.03575 7.02634 6.56838 7.56273 6.18769C8.07515 5.82402 8.78818 5.61791 9.74736 5.61791C10.6573 5.61791 11.2814 5.83057 11.6919 6.18492L11.6919 6.18494L11.695 6.18762C12.1031 6.53404 12.3297 7.03149 12.3297 7.75284V7.83228C12.3297 8.11133 12.2355 8.2734 12.0574 8.39262C11.8124 8.54675 11.361 8.69661 10.644 8.80794C9.91791 8.92068 8.95541 9.0387 7.75351 9.16173C6.70953 9.25242 5.70465 9.42468 4.73943 9.6792C3.75758 9.9381 2.87485 10.3151 2.09608 10.8142C1.29549 11.3273 0.661471 12.0068 0.198206 12.8463C-0.277193 13.6988 -0.5 14.7326 -0.5 15.9224C-0.5 17.3316 -0.180098 18.5509 0.490532 19.5509L0.905788 19.2724L0.490532 19.5509C1.15303 20.5387 2.07542 21.2781 3.23854 21.7717L3.23853 21.7718L3.24309 21.7736C4.40564 22.2536 5.73446 22.4868 7.21927 22.4868C8.44273 22.4868 9.61073 22.3312 10.7214 22.0178C11.8313 21.7046 12.8083 21.2541 13.6452 20.6608C14.2788 20.2164 14.7964 19.7043 15.1894 19.123C15.7755 19.9594 16.5479 20.6533 17.5014 21.202ZM26.0466 8.88146H18.4159C18.4983 8.43633 18.6514 8.02015 18.8743 7.63027C19.2087 7.04545 19.6681 6.58326 20.2601 6.2385L20.2601 6.23853L20.2643 6.23601C20.8437 5.89095 21.5279 5.71059 22.3338 5.71059C23.0881 5.71059 23.73 5.87448 24.2751 6.18717L24.275 6.18723L24.2823 6.19125C24.8432 6.50072 25.2766 6.92584 25.5911 7.47251C25.8299 7.88773 25.9837 8.35531 26.0466 8.88146ZM12.2651 12.9735L12.2652 12.9736L12.2738 12.9709C12.3064 12.9609 12.3386 12.9507 12.3703 12.9404V14.3335C12.3703 14.9574 12.2107 15.5011 11.8976 15.9798C11.5795 16.466 11.1388 16.8596 10.5612 17.1586C9.99323 17.4439 9.32516 17.5939 8.54415 17.5939C7.73778 17.5939 7.11484 17.4136 6.64134 17.0889C6.2217 16.7873 6.00232 16.3607 6.00232 15.7371C6.00232 15.2994 6.11584 14.9731 6.31351 14.7233L6.31354 14.7233L6.3172 14.7185C6.53423 14.4374 6.8504 14.1984 7.29111 14.0134C7.74817 13.8215 8.29545 13.6764 8.93887 13.5839C9.25344 13.5399 9.60408 13.4915 9.99081 13.4386L9.99083 13.4388L10.0018 13.437C10.393 13.3746 10.7842 13.3078 11.1754 13.2365L11.1754 13.2367L11.1862 13.2345C11.5836 13.153 11.9436 13.0661 12.2651 12.9735Z" fill="white"/>
<path d="M17.5014 21.202L17.5034 21.2031C19.0326 22.0737 20.8106 22.5 22.8205 22.5C24.4435 22.5 25.9236 22.2349 27.2535 21.6953L27.2551 21.6947C28.5885 21.1482 29.7034 20.3828 30.5881 19.3939L30.5897 19.3921C31.4773 18.3905 32.0656 17.2174 32.3536 15.8822L32.4758 15.3153L31.8971 15.2778L26.5841 14.9336L26.218 14.9099L26.0855 15.252C25.9138 15.6953 25.6639 16.0621 25.3363 16.3605L25.3362 16.3605L25.332 16.3645C25.0103 16.6646 24.6192 16.8943 24.15 17.0501L24.1476 17.0509C23.6845 17.2073 23.1539 17.2894 22.5501 17.2894C21.6651 17.2894 20.9238 17.1059 20.3085 16.7583C19.6911 16.4094 19.2128 15.9154 18.8687 15.2649C18.5873 14.7329 18.4147 14.1068 18.3624 13.377H32H32.5V12.877V11.3279C32.5 9.55124 32.2411 7.97812 31.7093 6.61919C31.191 5.26309 30.4641 4.12252 29.5225 3.20973C28.587 2.30283 27.4893 1.6256 26.2349 1.17853C24.9947 0.724476 23.6568 0.5 22.2256 0.5C20.4704 0.5 18.9074 0.863527 17.552 1.60703C16.936 1.94091 16.3688 2.3591 15.8496 2.85898C15.726 2.70393 15.5937 2.55716 15.4527 2.41885C14.9679 1.93478 14.4085 1.55206 13.7775 1.27183C13.1719 0.998953 12.5339 0.801927 11.8647 0.680202C11.2044 0.56009 10.539 0.5 9.86903 0.5C8.1191 0.5 6.56852 0.75369 5.22784 1.27495C3.8911 1.78586 2.78817 2.52683 1.935 3.50486L1.93473 3.50517C1.09218 4.47265 0.528817 5.61818 0.241592 6.93096L0.119102 7.49081L0.69039 7.53626L6.01696 7.95996L6.42774 7.99264L6.53829 7.59567C6.6942 7.03575 7.02634 6.56838 7.56273 6.18769C8.07515 5.82402 8.78818 5.61791 9.74736 5.61791C10.6573 5.61791 11.2814 5.83057 11.6919 6.18492L11.6919 6.18494L11.695 6.18762C12.1031 6.53404 12.3297 7.03149 12.3297 7.75284V7.83228C12.3297 8.11133 12.2355 8.2734 12.0574 8.39262C11.8124 8.54675 11.361 8.69661 10.644 8.80794C9.91791 8.92068 8.95541 9.0387 7.75351 9.16173C6.70953 9.25242 5.70465 9.42468 4.73943 9.6792C3.75758 9.9381 2.87485 10.3151 2.09608 10.8142C1.29549 11.3273 0.661471 12.0068 0.198206 12.8463C-0.277193 13.6988 -0.5 14.7326 -0.5 15.9224C-0.5 17.3316 -0.180098 18.5509 0.490532 19.5509L0.905788 19.2724L0.490532 19.5509C1.15303 20.5387 2.07542 21.2781 3.23854 21.7717L3.23853 21.7718L3.24309 21.7736C4.40564 22.2536 5.73446 22.4868 7.21927 22.4868C8.44273 22.4868 9.61073 22.3312 10.7214 22.0178C11.8313 21.7046 12.8083 21.2541 13.6452 20.6608C14.2788 20.2164 14.7964 19.7043 15.1894 19.123C15.7755 19.9594 16.5479 20.6533 17.5014 21.202ZM26.0466 8.88146H18.4159C18.4983 8.43633 18.6514 8.02015 18.8743 7.63027C19.2087 7.04545 19.6681 6.58326 20.2601 6.2385L20.2601 6.23853L20.2643 6.23601C20.8437 5.89095 21.5279 5.71059 22.3338 5.71059C23.0881 5.71059 23.73 5.87448 24.2751 6.18717L24.275 6.18723L24.2823 6.19125C24.8432 6.50072 25.2766 6.92584 25.5911 7.47251C25.8299 7.88773 25.9837 8.35531 26.0466 8.88146ZM12.2651 12.9735L12.2652 12.9736L12.2738 12.9709C12.3064 12.9609 12.3386 12.9507 12.3703 12.9404V14.3335C12.3703 14.9574 12.2107 15.5011 11.8976 15.9798C11.5795 16.466 11.1388 16.8596 10.5612 17.1586C9.99323 17.4439 9.32516 17.5939 8.54415 17.5939C7.73778 17.5939 7.11484 17.4136 6.64134 17.0889C6.2217 16.7873 6.00232 16.3607 6.00232 15.7371C6.00232 15.2994 6.11584 14.9731 6.31351 14.7233L6.31354 14.7233L6.3172 14.7185C6.53423 14.4374 6.8504 14.1984 7.29111 14.0134C7.74817 13.8215 8.29545 13.6764 8.93887 13.5839C9.25344 13.5399 9.60408 13.4915 9.99081 13.4386L9.99083 13.4388L10.0018 13.437C10.393 13.3746 10.7842 13.3078 11.1754 13.2365L11.1754 13.2367L11.1862 13.2345C11.5836 13.153 11.9436 13.0661 12.2651 12.9735Z" stroke="black"/>
<path d="M17.5014 21.202L17.5034 21.2031C19.0326 22.0737 20.8106 22.5 22.8205 22.5C24.4435 22.5 25.9236 22.2349 27.2535 21.6953L27.2551 21.6947C28.5885 21.1482 29.7034 20.3828 30.5881 19.3939L30.5897 19.3921C31.4773 18.3905 32.0656 17.2174 32.3536 15.8822L32.4758 15.3153L31.8971 15.2778L26.5841 14.9336L26.218 14.9099L26.0855 15.252C25.9138 15.6953 25.6639 16.0621 25.3363 16.3605L25.3362 16.3605L25.332 16.3645C25.0103 16.6646 24.6192 16.8943 24.15 17.0501L24.1476 17.0509C23.6845 17.2073 23.1539 17.2894 22.5501 17.2894C21.6651 17.2894 20.9238 17.1059 20.3085 16.7583C19.6911 16.4094 19.2128 15.9154 18.8687 15.2649C18.5873 14.7329 18.4147 14.1068 18.3624 13.377H32H32.5V12.877V11.3279C32.5 9.55124 32.2411 7.97812 31.7093 6.61919C31.191 5.26309 30.4641 4.12252 29.5225 3.20973C28.587 2.30283 27.4893 1.6256 26.2349 1.17853C24.9947 0.724476 23.6568 0.5 22.2256 0.5C20.4704 0.5 18.9074 0.863527 17.552 1.60703C16.936 1.94091 16.3688 2.3591 15.8496 2.85898C15.726 2.70393 15.5937 2.55716 15.4527 2.41885C14.9679 1.93478 14.4085 1.55206 13.7775 1.27183C13.1719 0.998953 12.5339 0.801927 11.8647 0.680202C11.2044 0.56009 10.539 0.5 9.86903 0.5C8.1191 0.5 6.56852 0.75369 5.22784 1.27495C3.8911 1.78586 2.78817 2.52683 1.935 3.50486L1.93473 3.50517C1.09218 4.47265 0.528817 5.61818 0.241592 6.93096L0.119102 7.49081L0.69039 7.53626L6.01696 7.95996L6.42774 7.99264L6.53829 7.59567C6.6942 7.03575 7.02634 6.56838 7.56273 6.18769C8.07515 5.82402 8.78818 5.61791 9.74736 5.61791C10.6573 5.61791 11.2814 5.83057 11.6919 6.18492L11.6919 6.18494L11.695 6.18762C12.1031 6.53404 12.3297 7.03149 12.3297 7.75284V7.83228C12.3297 8.11133 12.2355 8.2734 12.0574 8.39262C11.8124 8.54675 11.361 8.69661 10.644 8.80794C9.91791 8.92068 8.95541 9.0387 7.75351 9.16173C6.70953 9.25242 5.70465 9.42468 4.73943 9.6792C3.75758 9.9381 2.87485 10.3151 2.09608 10.8142C1.29549 11.3273 0.661471 12.0068 0.198206 12.8463C-0.277193 13.6988 -0.5 14.7326 -0.5 15.9224C-0.5 17.3316 -0.180098 18.5509 0.490532 19.5509L0.905788 19.2724L0.490532 19.5509C1.15303 20.5387 2.07542 21.2781 3.23854 21.7717L3.23853 21.7718L3.24309 21.7736C4.40564 22.2536 5.73446 22.4868 7.21927 22.4868C8.44273 22.4868 9.61073 22.3312 10.7214 22.0178C11.8313 21.7046 12.8083 21.2541 13.6452 20.6608C14.2788 20.2164 14.7964 19.7043 15.1894 19.123C15.7755 19.9594 16.5479 20.6533 17.5014 21.202ZM26.0466 8.88146H18.4159C18.4983 8.43633 18.6514 8.02015 18.8743 7.63027C19.2087 7.04545 19.6681 6.58326 20.2601 6.2385L20.2601 6.23853L20.2643 6.23601C20.8437 5.89095 21.5279 5.71059 22.3338 5.71059C23.0881 5.71059 23.73 5.87448 24.2751 6.18717L24.275 6.18723L24.2823 6.19125C24.8432 6.50072 25.2766 6.92584 25.5911 7.47251C25.8299 7.88773 25.9837 8.35531 26.0466 8.88146ZM12.2651 12.9735L12.2652 12.9736L12.2738 12.9709C12.3064 12.9609 12.3386 12.9507 12.3703 12.9404V14.3335C12.3703 14.9574 12.2107 15.5011 11.8976 15.9798C11.5795 16.466 11.1388 16.8596 10.5612 17.1586C9.99323 17.4439 9.32516 17.5939 8.54415 17.5939C7.73778 17.5939 7.11484 17.4136 6.64134 17.0889C6.2217 16.7873 6.00232 16.3607 6.00232 15.7371C6.00232 15.2994 6.11584 14.9731 6.31351 14.7233L6.31354 14.7233L6.3172 14.7185C6.53423 14.4374 6.8504 14.1984 7.29111 14.0134C7.74817 13.8215 8.29545 13.6764 8.93887 13.5839C9.25344 13.5399 9.60408 13.4915 9.99081 13.4386L9.99083 13.4388L10.0018 13.437C10.393 13.3746 10.7842 13.3078 11.1754 13.2365L11.1754 13.2367L11.1862 13.2345C11.5836 13.153 11.9436 13.0661 12.2651 12.9735Z" stroke="black" stroke-opacity="0.2"/>
</svg>
