<svg width="20" height="32" viewBox="0 0 20 32" fill="none" xmlns="http://www.w3.org/2000/svg">
<path d="M9.22611 6.51742C11.8199 4.54458 15.2365 1.35046 16.6206 0C20.9436 7.51559 10.5344 11.5082 7.51977 15.0312C9.6054 14.5615 14.2203 13.5985 15.995 13.5046C18.2133 13.3871 19.9767 14.3853 19.9767 16.2642C19.9767 18.1431 16.2794 20.5504 12.8666 23.6624C10.1363 26.1519 12.9803 30.2581 14.7436 32C4.96014 28.477 7.86105 21.8813 10.5344 19.0238C3.65188 21.1963 0.921525 20.3743 0.466479 16.2642C0.0114327 12.1541 5.98391 8.98348 9.22611 6.51742Z" fill="#3C32BC"/>
<path d="M14.7427 32.0001C4.95917 28.4771 7.86009 21.8814 10.5335 19.0239C12.5243 16.896 18.7698 13.6926 15.994 13.5047C18.2124 13.3872 19.9757 14.3854 19.9757 16.2643C19.9757 18.1432 16.2784 20.5505 12.8656 23.6625C10.1353 26.152 12.9794 30.2582 14.7427 32.0001Z" fill="#6054F0"/>
<path d="M9.22611 6.51742C11.8199 4.54458 15.2365 1.35046 16.6206 0C20.0129 4.40724 15.9381 8.80733 11.0464 12.1541C6.15463 15.5009 2.5441 19.262 5.52894 20.1529C1.38803 20.5395 0.661498 18.0257 0.466479 16.2642C0.0114327 12.1541 5.98391 8.98348 9.22611 6.51742Z" fill="#6054F0"/>
</svg>
