<svg width="31" height="32" viewBox="0 0 31 32" fill="none" xmlns="http://www.w3.org/2000/svg">
<ellipse cx="15.3115" cy="11.7831" rx="7.18975" ry="13.1132" transform="rotate(120 15.3115 11.7831)" fill="#B882E1"/>
<ellipse cx="15.3108" cy="20.2169" rx="7.18975" ry="13.1132" transform="rotate(60 15.3108 20.2169)" fill="white" fill-opacity="0.3"/>
<path fill-rule="evenodd" clip-rule="evenodd" d="M8.77197 15.9977C9.66372 16.7135 10.6495 17.3901 11.7161 18.006C17.988 21.6271 24.6819 21.7748 26.6673 18.336C26.7178 18.2486 26.7648 18.1596 26.8082 18.0693C27.0629 17.3545 27.2049 16.6572 27.2236 15.9949C27.2043 15.3351 27.0627 14.6406 26.8093 13.9287C26.7655 13.8375 26.7181 13.7477 26.6672 13.6594C24.6818 10.2206 17.9879 10.3684 11.716 13.9895C10.6494 14.6053 9.66368 15.2819 8.77197 15.9977Z" fill="#DCAFFF"/>
</svg>
