<svg width="32" height="32" viewBox="0 0 32 32" fill="none" xmlns="http://www.w3.org/2000/svg">
<path fill-rule="evenodd" clip-rule="evenodd" d="M29.3279 11.1668H23.6817C21.0542 11.1715 18.9256 13.2469 18.9208 15.8088C18.9173 18.3764 21.0482 20.4611 23.6817 20.4645H29.3327V20.8725C29.3327 25.3514 26.6174 28 22.0225 28L9.97742 28C5.38127 28 2.66602 25.3514 2.66602 20.8725L2.66602 11.1171C2.66602 6.63816 5.38127 4 9.97742 4L22.0177 4C26.6127 4 29.3279 6.63816 29.3279 11.1171V11.1668ZM8.98446 11.1564L16.5045 11.1564H16.5092H16.5187C17.0816 11.1541 17.5368 10.7069 17.5344 10.1568C17.532 9.60794 17.0722 9.1642 16.5092 9.16651L8.98446 9.16651C8.42506 9.16882 7.97113 9.61141 7.96876 10.158C7.96639 10.7069 8.4215 11.1541 8.98446 11.1564Z" fill="white"/>
<path opacity="0.4" d="M21.3819 16.3955C21.6607 17.6638 22.7727 18.556 24.0421 18.5328H28.3754C28.9036 18.5328 29.332 18.0954 29.332 17.5547V14.1793C29.3309 13.6397 28.9036 13.2011 28.3754 13.2L23.9401 13.2C22.4961 13.2046 21.3298 14.4032 21.332 15.8803C21.332 16.0532 21.349 16.2261 21.3819 16.3955Z" fill="white"/>
<circle cx="23.9993" cy="15.8667" r="1.33333" fill="white"/>
</svg>
