<svg width="32" height="21" viewBox="0 0 32 21" fill="none" xmlns="http://www.w3.org/2000/svg">
<path d="M23.0423 0.0361757C24.8075 0.0361757 26.3599 0.397933 27.6995 1.12145C29.0516 1.8329 30.1033 2.86994 30.8545 4.23256C31.6182 5.59518 32 7.25926 32 9.22481V11.9018H18.4225C18.4851 13.4574 18.9671 14.6813 19.8685 15.5736C20.7825 16.4539 22.0469 16.8941 23.662 16.8941C24.9264 16.8941 26.1408 16.7614 27.3052 16.4961C28.4695 16.2308 29.6338 15.8329 30.7981 15.3023V19.5711C29.7465 20.0655 28.651 20.4272 27.5117 20.6563C26.385 20.8854 24.9953 21 23.3427 21C22.2034 21 21.1268 20.8674 20.1127 20.6021C19.0986 20.3247 18.1721 19.9147 17.3333 19.3721C16.507 18.8174 15.7934 18.118 15.1925 17.2739C14.4413 18.1301 13.6901 18.8355 12.939 19.3902C12.1878 19.9449 11.3177 20.3549 10.3286 20.6202C9.35211 20.8734 8.13771 21 6.68545 21C5.48357 21 4.37559 20.7709 3.3615 20.3127C2.34742 19.8544 1.53365 19.155 0.920188 18.2145C0.306729 17.2618 0 16.056 0 14.5969C0 13.1619 0.338028 11.9862 1.01408 11.0698C1.69014 10.1413 2.69797 9.44186 4.03756 8.97158C5.38967 8.50129 7.06729 8.22997 9.07042 8.15762L12.6573 8.0491V6.52972C12.6573 5.69767 12.3756 5.08269 11.8122 4.68475C11.2613 4.28682 10.5039 4.08786 9.53991 4.08786C8.53834 4.08786 7.56807 4.21447 6.62911 4.4677C5.69014 4.72093 4.75117 5.05857 3.81221 5.48062L1.95305 1.82687C3.05477 1.26012 4.28795 0.813954 5.65258 0.488372C7.01721 0.162791 8.42566 0 9.87793 0C11.2926 0 12.5321 0.198966 13.5962 0.596899C14.6729 0.982773 15.5743 1.57364 16.3005 2.36951C17.1268 1.5857 18.0782 1.00086 19.1549 0.614987C20.2441 0.229113 21.5399 0.0361757 23.0423 0.0361757ZM12.6573 11.2687L10.5352 11.3411C8.79499 11.3893 7.58059 11.7089 6.89202 12.2997C6.21596 12.8906 5.87793 13.6684 5.87793 14.6331C5.87793 15.4772 6.11581 16.0801 6.59155 16.4419C7.07981 16.7916 7.71831 16.9664 8.50704 16.9664C9.29577 16.9664 10.0031 16.8096 10.6291 16.4961C11.2551 16.1826 11.7496 15.7244 12.1127 15.1214C12.4757 14.5185 12.6573 13.789 12.6573 12.9328V11.2687ZM22.9296 3.96124C21.6526 3.96124 20.626 4.30491 19.8498 4.99225C19.0861 5.67959 18.6479 6.75883 18.5352 8.22997H26.6103C26.5978 7.40999 26.4476 6.68045 26.1596 6.04134C25.8842 5.40224 25.4773 4.89578 24.939 4.52196C24.4006 4.14815 23.7308 3.96124 22.9296 3.96124Z" fill="white"/>
</svg>
