<svg width="32" height="32" viewBox="0 0 32 32" fill="none" xmlns="http://www.w3.org/2000/svg">
<path d="M12.9478 12.8964C14.8152 11.7012 17.1848 11.7012 19.0522 12.8964L31.3233 20.7498C32.2256 21.3272 32.2256 22.6728 31.3233 23.2502L19.0522 31.1036C17.1848 32.2988 14.8152 32.2988 12.9478 31.1036L0.676675 23.2502C-0.225558 22.6728 -0.225558 21.3272 0.676674 20.7498L12.9478 12.8964Z" fill="#EDAF10"/>
<path d="M12.9478 6.89637C14.8152 5.70121 17.1848 5.70121 19.0522 6.89637L31.3233 14.7498C32.2256 15.3272 32.2256 16.6728 31.3233 17.2502L19.0522 25.1036C17.1848 26.2988 14.8152 26.2988 12.9478 25.1036L0.676675 17.2502C-0.225558 16.6728 -0.225558 15.3272 0.676674 14.7498L12.9478 6.89637Z" fill="#FFC93F"/>
<path d="M12.9478 1.89637C14.8152 0.701211 17.1848 0.701211 19.0522 1.89637L31.3233 9.74982C32.2256 10.3272 32.2256 11.6728 31.3233 12.2502L19.0522 20.1036C17.1848 21.2988 14.8152 21.2988 12.9478 20.1036L0.676675 12.2502C-0.225558 11.6728 -0.225558 10.3272 0.676674 9.74982L12.9478 1.89637Z" fill="white" fill-opacity="0.4"/>
</svg>
