<svg width="48" height="48" viewBox="0 0 48 48" fill="none" xmlns="http://www.w3.org/2000/svg">
<circle cx="24" cy="24" r="23.5" stroke="white" stroke-opacity="0.1"/>
<path fill-rule="evenodd" clip-rule="evenodd" d="M18.1852 26.2054C11.7537 18.9183 14.9694 16.7396 15.254 16.3855C18.3227 13.2731 18.7987 14.6898 21.2095 17.1367C23.2404 19.208 20.6076 20.1954 21.6865 22.6531L18.1852 26.2054Z" fill="white"/>
<path fill-rule="evenodd" clip-rule="evenodd" d="M24.0902 25.3826C27.3704 28.0763 28.2956 24.2235 30.619 26.5846C33.0161 29.0315 34.3944 29.5252 31.355 32.6268C30.9975 32.938 28.6951 36.4689 20.7996 28.7417L24.0902 25.3826Z" fill="white"/>
<path opacity="0.4" d="M33.3749 15.8594V15.8695L23.9586 25.5151L15.4444 34.246C15.2759 34.4086 15.0678 34.5 14.8497 34.5C14.6316 34.5 14.4235 34.4086 14.2451 34.246C13.9676 33.9512 13.9279 33.5141 14.1162 33.1889L14.146 33.1482C14.1658 33.1167 14.1856 33.0873 14.2154 33.0568L32.1755 14.6295C32.3242 14.4669 32.5423 14.3643 32.7702 14.3643C32.9982 14.3643 33.2163 14.4669 33.3749 14.6295C33.7019 14.9751 33.7019 15.5138 33.3749 15.8594Z" fill="white"/>
</svg>
