<svg width="48" height="48" viewBox="0 0 48 48" fill="none" xmlns="http://www.w3.org/2000/svg">
<path opacity="0.4" d="M33.101 21.5879H31.8979V20.4116C31.8979 19.9094 31.4952 19.5 30.999 19.5C30.5038 19.5 30.1 19.9094 30.1 20.4116V21.5879H28.899C28.4027 21.5879 28 21.9973 28 22.4995C28 23.0016 28.4027 23.4111 28.899 23.4111H30.1V24.5884C30.1 25.0906 30.5038 25.5 30.999 25.5C31.4952 25.5 31.8979 25.0906 31.8979 24.5884V23.4111H33.101C33.5962 23.4111 34 23.0016 34 22.4995C34 21.9973 33.5962 21.5879 33.101 21.5879Z" fill="white"/>
<path d="M21.5 27.0155C17.4542 27.0155 14 27.6623 14 30.2466C14 32.8299 17.4332 33.5 21.5 33.5C25.5448 33.5 29 32.8532 29 30.2689C29 27.6846 25.5668 27.0155 21.5 27.0155Z" fill="white"/>
<path opacity="0.4" d="M21.5 24.5542C24.2546 24.5542 26.4626 22.3177 26.4626 19.5276C26.4626 16.7375 24.2546 14.5 21.5 14.5C18.7454 14.5 16.5374 16.7375 16.5374 19.5276C16.5374 22.3177 18.7454 24.5542 21.5 24.5542Z" fill="white"/>
<circle cx="24" cy="24" r="23.5" stroke="white" stroke-opacity="0.1"/>
</svg>
