<svg width="88" height="88" viewBox="0 0 88 88" fill="none" xmlns="http://www.w3.org/2000/svg">
<path d="M44 1V10" stroke="#39F6B2" stroke-linecap="round" stroke-linejoin="round"/>
<path d="M74.4058 13.0945L67.9192 19.581" stroke="#39F6B2" stroke-linecap="round" stroke-linejoin="round"/>
<path d="M87 44L78 44" stroke="#39F6B2" stroke-linecap="round" stroke-linejoin="round"/>
<path d="M74.4058 73.9058L67.9192 67.4192" stroke="#39F6B2" stroke-linecap="round" stroke-linejoin="round"/>
<path d="M44 77V87" stroke="#39F6B2" stroke-linecap="round" stroke-linejoin="round"/>
<path d="M20.0806 67.4189L13.594 73.9055" stroke="#39F6B2" stroke-linecap="round" stroke-linejoin="round"/>
<path d="M10 44L1 44" stroke="#39F6B2" stroke-linecap="round" stroke-linejoin="round"/>
<path d="M20.0806 19.5808L13.594 13.0943" stroke="#39F6B2" stroke-linecap="round" stroke-linejoin="round"/>
<path d="M55.1289 1.96509L52.7547 10.8258" stroke="#39F6B2" stroke-linecap="round" stroke-linejoin="round"/>
<path d="M65.5 6.26074L60.9133 14.2051" stroke="#39F6B2" stroke-linecap="round" stroke-linejoin="round"/>
<path d="M81.2393 22L73.2949 26.5867" stroke="#39F6B2" stroke-linecap="round" stroke-linejoin="round"/>
<path d="M85.5347 32.3711L76.6739 34.7453" stroke="#39F6B2" stroke-linecap="round" stroke-linejoin="round"/>
<path d="M85.5347 54.6292L76.6739 52.2549" stroke="#39F6B2" stroke-linecap="round" stroke-linejoin="round"/>
<path d="M81.2393 65L73.2949 60.4133" stroke="#39F6B2" stroke-linecap="round" stroke-linejoin="round"/>
<path d="M65.5 80.7393L60.9133 72.7949" stroke="#39F6B2" stroke-linecap="round" stroke-linejoin="round"/>
<path d="M55.1289 85.0349L52.7547 76.1742" stroke="#39F6B2" stroke-linecap="round" stroke-linejoin="round"/>
<path d="M35.2451 76.1741L32.8709 85.0348" stroke="#39F6B2" stroke-linecap="round" stroke-linejoin="round"/>
<path d="M27.0864 72.7947L22.4998 80.739" stroke="#39F6B2" stroke-linecap="round" stroke-linejoin="round"/>
<path d="M14.7051 60.4133L6.76074 65" stroke="#39F6B2" stroke-linecap="round" stroke-linejoin="round"/>
<path d="M11.3257 52.2549L2.46492 54.6291" stroke="#39F6B2" stroke-linecap="round" stroke-linejoin="round"/>
<path d="M11.3262 34.7451L2.46541 32.3709" stroke="#39F6B2" stroke-linecap="round" stroke-linejoin="round"/>
<path d="M14.7056 26.5867L6.76123 22" stroke="#39F6B2" stroke-linecap="round" stroke-linejoin="round"/>
<path d="M27.0864 14.2051L22.4998 6.26074" stroke="#39F6B2" stroke-linecap="round" stroke-linejoin="round"/>
<path d="M35.2451 10.8259L32.8709 1.96517" stroke="#39F6B2" stroke-linecap="round" stroke-linejoin="round"/>
<path opacity="0.4" d="M49.787 30.6665H38.227C33.707 30.6665 30.667 33.8398 30.667 38.5598V49.4532C30.667 54.1598 33.707 57.3332 38.227 57.3332H49.787C54.307 57.3332 57.3337 54.1598 57.3337 49.4532V38.5598C57.3337 33.8398 54.307 30.6665 49.787 30.6665Z" fill="#39F6B2"/>
<path d="M42.4178 48.3307C42.1191 48.3307 41.8204 48.2174 41.5924 47.9894L38.4284 44.8254C37.9724 44.3694 37.9724 43.6307 38.4284 43.176C38.8844 42.72 39.6218 42.7187 40.0778 43.1747L42.4178 45.5147L47.9218 40.0107C48.3778 39.5547 49.1151 39.5547 49.5711 40.0107C50.0271 40.4667 50.0271 41.2054 49.5711 41.6614L43.2431 47.9894C43.0151 48.2174 42.7164 48.3307 42.4178 48.3307Z" fill="#39F6B2"/>
</svg>
