<svg width="20" height="19" viewBox="0 0 20 19" fill="none" xmlns="http://www.w3.org/2000/svg">
<path d="M9.17039 9.6H5.23199L7.19999 3.978L9.16919 9.6H9.17039ZM9.80159 11.4L10.1976 12.5328L11.6112 11.1204L8.16359 1.2828C7.84439 0.372001 6.55679 0.372001 6.23759 1.2828L1.85039 13.8036C1.77146 14.0289 1.78528 14.2764 1.8888 14.4915C1.99232 14.7067 2.17706 14.8719 2.40239 14.9508C2.62772 15.0297 2.87517 15.0159 3.09032 14.9124C3.30546 14.8089 3.47066 14.6241 3.54959 14.3988L4.59959 11.4H9.80159ZM15.9696 8.4576L10.1748 14.2536C9.83699 14.5912 9.59725 15.0143 9.48119 15.4776L9.03239 17.2752C9.01846 17.3304 9.00883 17.3865 9.00359 17.4432C8.55656 17.4622 8.10887 17.4267 7.67039 17.3376C7.58279 17.3172 7.55039 17.2056 7.59119 17.124C7.80719 16.7064 7.87079 15.8364 7.10639 15.528C6.07439 15.114 4.73279 15.678 3.67199 16.1256C3.23279 16.3104 2.84159 16.4736 2.53919 16.5408C2.07479 16.644 1.52159 16.4628 1.07999 16.242C0.825592 16.1148 0.501592 16.3404 0.647992 16.5852C0.910792 17.0244 1.38479 17.4696 2.23919 17.5752C3.22319 17.6976 3.90839 17.3928 4.60919 17.0832C5.08919 16.8696 5.57519 16.6536 6.16919 16.5696C6.27239 16.5552 6.34319 16.6776 6.30359 16.7736C6.12119 17.202 6.14399 17.8464 6.68279 18.2664C7.30439 18.7524 9.31199 18.8796 10.6584 18.486L12.1236 18.12C12.588 18.0036 13.0116 17.7648 13.3488 17.4264L19.1448 11.6304C19.5602 11.2084 19.7919 10.6393 19.7895 10.0472C19.7871 9.45505 19.5507 8.88787 19.132 8.46924C18.7132 8.05062 18.1459 7.81449 17.5538 7.81231C16.9616 7.81013 16.3926 8.04207 15.9708 8.4576H15.9696Z" fill="#6054F0"/>
</svg>
