<svg width="24" height="24" viewBox="0 0 24 24" fill="none" xmlns="http://www.w3.org/2000/svg">
<g id="Iconly/Bulk/Video">
<g id="Video">
<path id="Fill 1" opacity="0.4" d="M21.7611 7.44251C21.3421 7.17855 20.8271 7.1552 20.3881 7.37855L18.9061 8.12677C18.3581 8.40291 18.0181 8.96129 18.0181 9.58261V15.4161C18.0181 16.0374 18.3581 16.5948 18.9061 16.873L20.3871 17.6202C20.5881 17.7237 20.8031 17.7735 21.0181 17.7735C21.2761 17.7735 21.5321 17.7004 21.7611 17.5572C22.1801 17.2943 22.4301 16.8384 22.4301 16.339V8.66179C22.4301 8.1623 22.1801 7.70646 21.7611 7.44251Z" fill="white"/>
<path id="Fill 3" d="M11.9056 20H6.11353C3.6915 20 2.00049 18.3299 2.00049 15.9391V9.06091C2.00049 6.66904 3.6915 5 6.11353 5H11.9056C14.3276 5 16.0186 6.66904 16.0186 9.06091V15.9391C16.0186 18.3299 14.3276 20 11.9056 20Z" fill="white"/>
</g>
</g>
</svg>
