<svg width="48" height="48" viewBox="0 0 48 48" fill="none" xmlns="http://www.w3.org/2000/svg">
<path d="M23.8251 27.2171H24.1748C26.0987 27.2171 27.731 25.985 28.3054 24.2764C28.3887 24.0276 28.1979 23.7713 27.9334 23.7713H26.8562C26.5133 23.7713 26.2362 23.4977 26.2362 23.16C26.2362 22.8213 26.5133 22.5467 26.8562 22.5467H27.9005C28.2463 22.5467 28.5263 22.2703 28.5263 21.9287C28.5263 21.5872 28.2463 21.3108 27.9005 21.3108H26.8562C26.5133 21.3108 26.2362 21.0362 26.2362 20.6985C26.2362 20.3598 26.5133 20.0853 26.8562 20.0853H27.9005C28.2463 20.0853 28.5263 19.8088 28.5263 19.4673C28.5263 19.1258 28.2463 18.8493 27.9005 18.8493H26.8562C26.5133 18.8493 26.2362 18.5747 26.2362 18.2361C26.2362 17.8984 26.5133 17.6238 26.8562 17.6238H27.9886C28.2483 17.6238 28.4343 17.3789 28.3645 17.1311C27.8501 15.324 26.1694 14 24.1748 14H23.8251C21.4217 14 19.4736 15.9229 19.4736 18.2973V22.9198C19.4736 25.2933 21.4217 27.2171 23.8251 27.2171Z" fill="white"/>
<path opacity="0.4" d="M31.5313 21.8256C30.9966 21.8256 30.5626 22.2532 30.5626 22.7822C30.5626 26.3553 27.6186 29.2626 24.0005 29.2626C20.3814 29.2626 17.4374 26.3553 17.4374 22.7822C17.4374 22.2532 17.0034 21.8256 16.4687 21.8256C15.934 21.8256 15.5 22.2532 15.5 22.7822C15.5 27.0872 18.7994 30.6411 23.0318 31.1185V33.0433C23.0318 33.5714 23.4648 33.9999 24.0005 33.9999C24.5352 33.9999 24.9692 33.5714 24.9692 33.0433V31.1185C29.2006 30.6411 32.5 27.0872 32.5 22.7822C32.5 22.2532 32.066 21.8256 31.5313 21.8256Z" fill="white"/>
<circle cx="24" cy="24" r="23.5" stroke="white" stroke-opacity="0.1"/>
</svg>
