<svg width="25" height="25" viewBox="0 0 25 25" fill="none" xmlns="http://www.w3.org/2000/svg">
<path d="M13.2725 2.0285C13.0154 2.00952 12.7578 2.00001 12.5 2V0.5C12.7948 0.500144 13.0895 0.511151 13.3835 0.533L13.2725 2.0285ZM16.2785 2.7035C15.7977 2.51796 15.3038 2.36805 14.801 2.255L15.1295 0.791C15.704 0.92 16.2695 1.091 16.8185 1.304L16.2785 2.7035ZM18.3335 3.7685C18.119 3.62547 17.8994 3.49038 17.675 3.3635L18.4145 2.0585C18.9274 2.3491 19.4182 2.67699 19.883 3.0395L18.9605 4.223C18.7571 4.06435 18.548 3.91324 18.3335 3.77V3.7685ZM21.0845 6.4535C20.7878 6.03196 20.4604 5.63288 20.105 5.2595L21.191 4.2245C21.596 4.652 21.971 5.1095 22.3115 5.5895L21.0845 6.4535ZM22.2005 8.4815C22.102 8.24369 21.995 8.00953 21.8795 7.7795L23.219 7.1045C23.4839 7.63113 23.7095 8.17661 23.894 8.7365L22.469 9.206C22.3884 8.9613 22.2988 8.71964 22.2005 8.4815ZM22.9955 12.242C22.9834 11.7265 22.9332 11.2126 22.8455 10.7045L24.323 10.4495C24.4235 11.0285 24.482 11.6165 24.497 12.2045L22.997 12.242H22.9955ZM22.799 14.549C22.8485 14.294 22.889 14.0405 22.9205 13.784L24.41 13.9685C24.338 14.5537 24.2226 15.1328 24.065 15.701L22.619 15.3005C22.688 15.053 22.748 14.8025 22.799 14.549ZM21.371 18.1175C21.647 17.6825 21.89 17.2265 22.1 16.7555L23.471 17.363C23.231 17.903 22.9535 18.422 22.6385 18.92L21.371 18.1175ZM19.925 19.925C20.108 19.742 20.2835 19.553 20.45 19.358L21.587 20.3375C21.3945 20.5608 21.1938 20.7769 20.9855 20.9855L19.925 19.925Z" fill="white"/>
<path d="M12.4998 2C10.7731 2.00012 9.07312 2.42607 7.55037 3.24011C6.02762 4.05415 4.72912 5.23115 3.76989 6.66687C2.81066 8.1026 2.22029 9.75272 2.05109 11.4711C1.88189 13.1895 2.13908 14.923 2.79987 16.5183C3.46066 18.1135 4.50465 19.5212 5.83939 20.6166C7.17413 21.712 8.75841 22.4613 10.4519 22.7982C12.1454 23.1351 13.8958 23.0492 15.5482 22.548C17.2005 22.0468 18.7038 21.1459 19.9248 19.925L20.9853 20.9855C19.5899 22.3817 17.8717 23.4121 15.9829 23.9855C14.094 24.5589 12.093 24.6575 10.1569 24.2727C8.22084 23.8879 6.40959 23.0315 4.88363 21.7793C3.35766 20.5272 2.16411 18.918 1.4087 17.0943C0.653303 15.2707 0.359382 13.2888 0.552984 11.3244C0.746586 9.35999 1.42173 7.47365 2.5186 5.83253C3.61548 4.1914 5.10021 2.84617 6.84124 1.916C8.58228 0.985843 10.5259 0.499477 12.4998 0.5V2Z" fill="white"/>
<path d="M11.75 5C11.9489 5 12.1397 5.07902 12.2803 5.21967C12.421 5.36032 12.5 5.55109 12.5 5.75V13.565L17.372 16.349C17.5397 16.4502 17.6612 16.6129 17.7104 16.8024C17.7597 16.992 17.7329 17.1933 17.6358 17.3633C17.5386 17.5333 17.3788 17.6586 17.1905 17.7124C17.0022 17.7661 16.8003 17.7441 16.628 17.651L11.378 14.651C11.2632 14.5854 11.1678 14.4907 11.1014 14.3764C11.035 14.262 11 14.1322 11 14V5.75C11 5.55109 11.079 5.36032 11.2197 5.21967C11.3603 5.07902 11.5511 5 11.75 5Z" fill="white"/>
</svg>
